<svg xmlns="http://www.w3.org/2000/svg" xmlns:oryx="http://oryx-editor.org" id="_FF5A6C66-1A3A-4C4C-938C-EC0C64250A42" width="1170.5" height="482" xmlns:xlink="http://www.w3.org/1999/xlink" xmlns:svg="http://www.w3.org/2000/svg"><defs><marker id="_70B73558-ADCB-4954-8A26-EB29F33499C8start" refX="1" refY="5" markerUnits="userSpaceOnUse" markerWidth="17" markerHeight="11" orient="auto" fill="#000000" stroke="#000000"> 	  		<path id="_70B73558-ADCB-4954-8A26-EB29F33499C8conditional" d="M 0 5 L 8 0 L 16 5 L 8 10 L 0 5" fill="white" stroke="#000000" stroke-width="1" display="none"/> 			<path id="_70B73558-ADCB-4954-8A26-EB29F33499C8default" d="M 5 0 L 11 10" fill="white" stroke="#000000" stroke-width="1" display="none"/> 	  	</marker><marker id="_70B73558-ADCB-4954-8A26-EB29F33499C8end" refX="15" refY="6" markerUnits="userSpaceOnUse" markerWidth="15" markerHeight="12" orient="auto" fill="#000000" stroke="#000000"> 	  		<path id="_70B73558-ADCB-4954-8A26-EB29F33499C8frame2" d="M 0 1 L 15 6 L 0 11z" fill="#000000" stroke="#000000" stroke-linejoin="round" stroke-width="2"/> 	  	</marker><marker id="_EB29AD20-DC82-4C26-9C3E-BA54E559FFBAstart" refX="1" refY="5" markerUnits="userSpaceOnUse" markerWidth="17" markerHeight="11" orient="auto" fill="#000000" stroke="#000000"> 	  		<path id="_EB29AD20-DC82-4C26-9C3E-BA54E559FFBAconditional" d="M 0 5 L 8 0 L 16 5 L 8 10 L 0 5" fill="white" stroke="#000000" stroke-width="1" display="none"/> 			<path id="_EB29AD20-DC82-4C26-9C3E-BA54E559FFBAdefault" d="M 5 0 L 11 10" fill="white" stroke="#000000" stroke-width="1" display="none"/> 	  	</marker><marker id="_EB29AD20-DC82-4C26-9C3E-BA54E559FFBAend" refX="15" refY="6" markerUnits="userSpaceOnUse" markerWidth="15" markerHeight="12" orient="auto" fill="#000000" stroke="#000000"> 	  		<path id="_EB29AD20-DC82-4C26-9C3E-BA54E559FFBAframe2" d="M 0 1 L 15 6 L 0 11z" fill="#000000" stroke="#000000" stroke-linejoin="round" stroke-width="2"/> 	  	</marker><marker id="_E7E16753-8E3E-407C-856E-214A48F954F1start" refX="1" refY="5" markerUnits="userSpaceOnUse" markerWidth="17" markerHeight="11" orient="auto" fill="#000000" stroke="#000000"> 	  		<path id="_E7E16753-8E3E-407C-856E-214A48F954F1conditional" d="M 0 5 L 8 0 L 16 5 L 8 10 L 0 5" fill="white" stroke="#000000" stroke-width="1" display="none"/> 			<path id="_E7E16753-8E3E-407C-856E-214A48F954F1default" d="M 5 0 L 11 10" fill="white" stroke="#000000" stroke-width="1" display="none"/> 	  	</marker><marker id="_E7E16753-8E3E-407C-856E-214A48F954F1end" refX="15" refY="6" markerUnits="userSpaceOnUse" markerWidth="15" markerHeight="12" orient="auto" fill="#000000" stroke="#000000"> 	  		<path id="_E7E16753-8E3E-407C-856E-214A48F954F1frame2" d="M 0 1 L 15 6 L 0 11z" fill="#000000" stroke="#000000" stroke-linejoin="round" stroke-width="2"/> 	  	</marker><marker id="_D5561E7D-FD5B-4404-9E37-19A16DD34E39start" refX="1" refY="5" markerUnits="userSpaceOnUse" markerWidth="17" markerHeight="11" orient="auto" fill="#000000" stroke="#000000"> 	  		<path id="_D5561E7D-FD5B-4404-9E37-19A16DD34E39conditional" d="M 0 5 L 8 0 L 16 5 L 8 10 L 0 5" fill="white" stroke="#000000" stroke-width="1" display="none"/> 			<path id="_D5561E7D-FD5B-4404-9E37-19A16DD34E39default" d="M 5 0 L 11 10" fill="white" stroke="#000000" stroke-width="1" display="none"/> 	  	</marker><marker id="_D5561E7D-FD5B-4404-9E37-19A16DD34E39end" refX="15" refY="6" markerUnits="userSpaceOnUse" markerWidth="15" markerHeight="12" orient="auto" fill="#000000" stroke="#000000"> 	  		<path id="_D5561E7D-FD5B-4404-9E37-19A16DD34E39frame2" d="M 0 1 L 15 6 L 0 11z" fill="#000000" stroke="#000000" stroke-linejoin="round" stroke-width="2"/> 	  	</marker><marker id="_F631064E-583F-4F0F-8108-A50495394070start" refX="1" refY="5" markerUnits="userSpaceOnUse" markerWidth="17" markerHeight="11" orient="auto" fill="#000000" stroke="#000000"> 	  		<path id="_F631064E-583F-4F0F-8108-A50495394070conditional" d="M 0 5 L 8 0 L 16 5 L 8 10 L 0 5" fill="white" stroke="#000000" stroke-width="1" display="none"/> 			<path id="_F631064E-583F-4F0F-8108-A50495394070default" d="M 5 0 L 11 10" fill="white" stroke="#000000" stroke-width="1" display="none"/> 	  	</marker><marker id="_F631064E-583F-4F0F-8108-A50495394070end" refX="15" refY="6" markerUnits="userSpaceOnUse" markerWidth="15" markerHeight="12" orient="auto" fill="#000000" stroke="#000000"> 	  		<path id="_F631064E-583F-4F0F-8108-A50495394070frame2" d="M 0 1 L 15 6 L 0 11z" fill="#000000" stroke="#000000" stroke-linejoin="round" stroke-width="2"/> 	  	</marker><marker id="_5ADD76D2-4C66-4A3E-91EF-B28ABDD5020Cstart" refX="1" refY="5" markerUnits="userSpaceOnUse" markerWidth="17" markerHeight="11" orient="auto" fill="#000000" stroke="#000000"> 	  		<path id="_5ADD76D2-4C66-4A3E-91EF-B28ABDD5020Cconditional" d="M 0 5 L 8 0 L 16 5 L 8 10 L 0 5" fill="white" stroke="#000000" stroke-width="1" display="none"/> 			<path id="_5ADD76D2-4C66-4A3E-91EF-B28ABDD5020Cdefault" d="M 5 0 L 11 10" fill="white" stroke="#000000" stroke-width="1" display="none"/> 	  	</marker><marker id="_5ADD76D2-4C66-4A3E-91EF-B28ABDD5020Cend" refX="15" refY="6" markerUnits="userSpaceOnUse" markerWidth="15" markerHeight="12" orient="auto" fill="#000000" stroke="#000000"> 	  		<path id="_5ADD76D2-4C66-4A3E-91EF-B28ABDD5020Cframe2" d="M 0 1 L 15 6 L 0 11z" fill="#000000" stroke="#000000" stroke-linejoin="round" stroke-width="2"/> 	  	</marker><marker id="_DB49F374-DFBD-4BA3-833C-3B46A6973999start" refX="1" refY="5" markerUnits="userSpaceOnUse" markerWidth="17" markerHeight="11" orient="auto" fill="#000000" stroke="#000000"> 	  		<path id="_DB49F374-DFBD-4BA3-833C-3B46A6973999conditional" d="M 0 5 L 8 0 L 16 5 L 8 10 L 0 5" fill="white" stroke="#000000" stroke-width="1" display="none"/> 			<path id="_DB49F374-DFBD-4BA3-833C-3B46A6973999default" d="M 5 0 L 11 10" fill="white" stroke="#000000" stroke-width="1" display="none"/> 	  	</marker><marker id="_DB49F374-DFBD-4BA3-833C-3B46A6973999end" refX="15" refY="6" markerUnits="userSpaceOnUse" markerWidth="15" markerHeight="12" orient="auto" fill="#000000" stroke="#000000"> 	  		<path id="_DB49F374-DFBD-4BA3-833C-3B46A6973999frame2" d="M 0 1 L 15 6 L 0 11z" fill="#000000" stroke="#000000" stroke-linejoin="round" stroke-width="2"/> 	  	</marker></defs><g stroke="none" font-family="Verdana, sans-serif" font-size-adjust="none" font-style="normal" font-variant="normal" font-weight="normal" line-heigth="normal" font-size="12"><g class="stencils" transform="translate(15.5, 16)"><g class="me"/><g class="children"><g id="_C9627F1B-C67D-4A42-8122-C066A2A1B399" bpmn2nodeid="_F7D3CCEC-4B9E-4973-AB71-907AD1A1FBDC"><g class="stencils" transform="translate(120, 165)"><g class="me"><g pointer-events="fill" id="_C9627F1B-C67D-4A42-8122-C066A2A1B399">        <defs id="_C9627F1B-C67D-4A42-8122-C066A2A1B399__C9627F1B-C67D-4A42-8122-C066A2A1B399_5"> 		<radialGradient id="_C9627F1B-C67D-4A42-8122-C066A2A1B399background" cx="10%" cy="10%" r="100%" fx="10%" fy="10%"> 			<stop offset="0%" stop-color="#ffffff" stop-opacity="1" id="_C9627F1B-C67D-4A42-8122-C066A2A1B399__C9627F1B-C67D-4A42-8122-C066A2A1B399_6"/> 			<stop id="_C9627F1B-C67D-4A42-8122-C066A2A1B399fill_el" offset="100%" stop-color="#9acd32" stop-opacity="1"/> 		</radialGradient> 	</defs> 	     <circle id="_C9627F1B-C67D-4A42-8122-C066A2A1B399bg_frame" cx="15" cy="15" r="15" stroke="#000000" fill="url(#_C9627F1B-C67D-4A42-8122-C066A2A1B399background) white" stroke-width="1" style="stroke-dasharray: 5.5, 3"/>      <circle id="_C9627F1B-C67D-4A42-8122-C066A2A1B399frame" cx="15" cy="15" r="15" stroke="#000000" fill="none" stroke-width="1" display="inherit"/>  	<text font-size="11" id="_C9627F1B-C67D-4A42-8122-C066A2A1B399text_name" x="15" y="32" oryx:align="top center" stroke="black" stroke-width="0pt" letter-spacing="-0.01px" fill="#000000" text-anchor="middle" transform="rotate(0 15 32)" visibility="inherit" oryx:fontSize="11"/>   </g></g><g class="children" style="overflow:hidden"/><g class="edge"/></g><g class="controls"><g class="dockers"/><g class="magnets" transform="translate(120, 165)"><g pointer-events="all" display="none" transform="translate(7, 7)"><circle cx="8" cy="8" r="4" stroke="none" fill="red" fill-opacity="0.3"/></g></g></g></g><g id="_1DD4B730-176D-442E-803C-746BE164B027" bpmn2nodeid="_0A1D9C75-7ED4-4849-B1F5-2AC70F3AEE8F"><g class="stencils" transform="translate(225, 160)"><g class="me"><g id="_1DD4B730-176D-442E-803C-746BE164B027">      <defs id="_1DD4B730-176D-442E-803C-746BE164B027__1DD4B730-176D-442E-803C-746BE164B027_4"> 		<radialGradient id="_1DD4B730-176D-442E-803C-746BE164B027background" cx="10%" cy="10%" r="100%" fx="10%" fy="10%"> 			<stop offset="0%" stop-color="#ffffff" stop-opacity="1" id="_1DD4B730-176D-442E-803C-746BE164B027__1DD4B730-176D-442E-803C-746BE164B027_5"/> 			<stop id="_1DD4B730-176D-442E-803C-746BE164B027fill_el" offset="100%" stop-color="#f0e68c" stop-opacity="1"/> 		</radialGradient> 	</defs> 	     <path d=" M0 20.5  L20.5 0  L40 20.5  L20.5 40  z" id="_1DD4B730-176D-442E-803C-746BE164B027bg_frame" fill="url(#_1DD4B730-176D-442E-803C-746BE164B027background) white" style="stroke-width:1" stroke="#a67f00"/>     <path id="_1DD4B730-176D-442E-803C-746BE164B027frame" d=" M11.25 20.5  L30.25 20.5  M20.5 11.25  L20.5 30.25 " style="fill:none;stroke-width:3" stroke="#a67f00"/>      	<text id="_1DD4B730-176D-442E-803C-746BE164B027text_name" x="30.5" y="30.5" oryx:align="left top" stroke-width="0pt" letter-spacing="-0.01px" fill="#000000" text-anchor="start" transform="rotate(0 30.5 30.5)" visibility="inherit" oryx:fontSize="12"/> 	   </g></g><g class="children" style="overflow:hidden"/><g class="edge"/></g><g class="controls"><g class="dockers"/><g class="magnets" transform="translate(225, 160)"><g pointer-events="all" display="none" transform="translate(12.5, 12.5)"><circle cx="8" cy="8" r="4" stroke="none" fill="red" fill-opacity="0.3"/></g></g></g></g><g id="_789B3242-2841-45CD-8674-3D3A1D84595C" bpmn2nodeid="_F28F20D2-3F5B-47E3-8C86-05F89ACB4974"><g class="stencils" transform="translate(375, 60)"><g class="me"><g pointer-events="fill" oryx:minimumSize="50 40" id="_789B3242-2841-45CD-8674-3D3A1D84595C">   	<defs id="_789B3242-2841-45CD-8674-3D3A1D84595C__789B3242-2841-45CD-8674-3D3A1D84595C_17"> 		<radialGradient id="_789B3242-2841-45CD-8674-3D3A1D84595Cbackground" cx="10%" cy="10%" r="100%" fx="10%" fy="10%"> 			<stop offset="0%" stop-color="#ffffff" stop-opacity="1" id="_789B3242-2841-45CD-8674-3D3A1D84595C__789B3242-2841-45CD-8674-3D3A1D84595C_18"/> 			<stop id="_789B3242-2841-45CD-8674-3D3A1D84595Cfill_el" offset="100%" stop-color="#fafad2" stop-opacity="1"/> 		</radialGradient> 		<radialGradient id="_789B3242-2841-45CD-8674-3D3A1D84595Cborderbackground" cx="10%" cy="10%" r="100%" fx="10%" fy="10%"> 			<stop offset="0%" stop-color="#ffffff" stop-opacity="1" id="_789B3242-2841-45CD-8674-3D3A1D84595C__789B3242-2841-45CD-8674-3D3A1D84595C_19"/> 			<stop id="_789B3242-2841-45CD-8674-3D3A1D84595Cfill_border" offset="100%" stop-color="#000000" stop-opacity="1" stroke="#000000"/> 		</radialGradient> 	</defs> 	 	<rect id="_789B3242-2841-45CD-8674-3D3A1D84595Ctext_frame" oryx:anchors="bottom top right left" x="1" y="1" width="94" height="79" rx="10" ry="10" stroke="none" stroke-width="0" fill="none"/> 	<rect id="_789B3242-2841-45CD-8674-3D3A1D84595Cbg_frame" oryx:resize="vertical horizontal" x="0" y="0" width="100" height="80" rx="10" ry="10" stroke="#000000" stroke-width="1" fill="url(#_789B3242-2841-45CD-8674-3D3A1D84595Cbackground) #ffffcc"/> 		<text font-size="12" id="_789B3242-2841-45CD-8674-3D3A1D84595Ctext_name" x="50" y="40" oryx:align="middle center" oryx:fittoelem="text_frame" stroke="black" text-anchor="middle" stroke-width="0pt" letter-spacing="-0.01px" fill="#000000" transform="rotate(0 50 40)" visibility="inherit" oryx:fontSize="12"><tspan x="50" y="40" dy="-1">Add Client </tspan><tspan x="50" y="40" dy="11">Details</tspan></text>     <g id="_789B3242-2841-45CD-8674-3D3A1D84595CmanualTask" transform="scale(0.7,0.7) translate(8,8)" display="none">     	<path oryx:anchors="top left" id="_789B3242-2841-45CD-8674-3D3A1D84595Cframe" style="opacity:1;fill:none;fill-opacity:1;stroke-width:1" d="M0.5,3.751l4.083-3.25c0,0,11.166,0.083,12.083,0.083s-2.417,2.917-1.5,2.917     s11.667,0,12.584,0c1.166,1.708-0.168,3.167-0.834,3.667s0.875,1.917-1,4.417c-0.75,0.25,0.75,1.875-1.333,3.333     c-1.167,0.583,0.583,1.542-1.25,2.833c-1.167,0-20.833,0.083-20.833,0.083l-2-1.333V3.751z" stroke="#000000"/> 		<path id="_789B3242-2841-45CD-8674-3D3A1D84595Cframe2" oryx:anchors="top left" style="opacity:1;fill:none;stroke-width:2" d="M 13.5 7 L 27 7" stroke="#000000"/> 		<path id="_789B3242-2841-45CD-8674-3D3A1D84595Cframe3" oryx:anchors="top left" style="opacity:1;fill:none;stroke-width:2" d="M 13.5 11 L 26 11" stroke="#000000"/> 		<path id="_789B3242-2841-45CD-8674-3D3A1D84595Cframe4" oryx:anchors="top left" style="opacity:1;fill:none;stroke-width:1.5" d="M 14 14.5 L 25 14.5" stroke="#000000"/> 		<path id="_789B3242-2841-45CD-8674-3D3A1D84595Cframe5" oryx:anchors="top left" style="opacity:1;fill:none;stroke-width:1.5" d="M 8.2 3.1 L 15 3.1" stroke="#000000"/> 	</g> 	 	<g id="_789B3242-2841-45CD-8674-3D3A1D84595CbusinessRuleTask" transform="scale(0.7,0.7) translate(8,8)" display="none"> 		<rect id="_789B3242-2841-45CD-8674-3D3A1D84595Cframe6" oryx:anchors="top left" x="0" y="0" width="22" height="4" style="opacity:1;fill:#B3B1B3;fill-opacity:1;" stroke="#000000"/> 		<rect id="_789B3242-2841-45CD-8674-3D3A1D84595Cframe7" oryx:anchors="top left" x="0" y="4" style="opacity:1;fill:none;" width="22" height="12" stroke="#000000"/> 		<path id="_789B3242-2841-45CD-8674-3D3A1D84595Cframe8" oryx:anchors="top left" style="opacity:1;fill:none;" d="M 0 10 L 22 10" stroke="#000000"/> 		<path id="_789B3242-2841-45CD-8674-3D3A1D84595Cframe9" oryx:anchors="top left" style="opacity:1; fill:none;" d="M 7 4 L 7 16" stroke="#000000"/> 	</g> 	 	<g id="_789B3242-2841-45CD-8674-3D3A1D84595CscriptTask" transform="scale(0.7,0.7) translate(8,8)" display="none"> 		<path oryx:anchors="top left" id="_789B3242-2841-45CD-8674-3D3A1D84595Cframe10" style="opacity:1;fill:none;" stroke="#000000" d="M6.402,0.5h14.5c0,0-5.833,2.833-5.833,5.583s4.417,6,4.417,9.167    s-4.167,5.083-4.167,5.083H0.235c0,0,5-2.667,5-5s-4.583-6.75-4.583-9.25S6.402,0.5,6.402,0.5z"/> 		<path oryx:anchors="top left" id="_789B3242-2841-45CD-8674-3D3A1D84595Cframe11" style="opacity:1;fill:none;stroke-width:1.5" d="M 3.5 4.5 L 13.5 4.5" stroke="#000000"/> 		<path oryx:anchors="top left" id="_789B3242-2841-45CD-8674-3D3A1D84595Cframe12" style="opacity:1;fill:none;stroke-width:1.5" d="M 3.8 8.5 L 13.8 8.5" stroke="#000000"/> 		<path oryx:anchors="top left" id="_789B3242-2841-45CD-8674-3D3A1D84595Cframe13" style="opacity:1;fill:none;stroke-width:1.5" d="M 6.3 12.5 L 16.3 12.5" stroke="#000000"/> 		<path oryx:anchors="top left" id="_789B3242-2841-45CD-8674-3D3A1D84595Cframe14" style="opacity:1;fill:none;stroke-width:1.5" d="M 6.5 16.5 L 16.5 16.5" stroke="#000000"/> 	</g> 	 	<g id="_789B3242-2841-45CD-8674-3D3A1D84595CuserTask" transform="scale(0.7,0.7) translate(8,8)" display="inherit"> 		<path id="_789B3242-2841-45CD-8674-3D3A1D84595Cframe15" oryx:anchors="top left" style="opacity:1;fill:#F4F6F7" stroke="#000000" d="M0.585,24.167h24.083v-7.833c0,0-2.333-3.917-7.083-5.167h-9.25    c-4.417,1.333-7.833,5.75-7.833,5.75L0.585,24.167z"/> 		<path id="_789B3242-2841-45CD-8674-3D3A1D84595Cframe16" oryx:anchors="top left" style="opacity:1;fill:none" d="M 6 20 L 6 24" stroke="#000000"/> 		<path id="_789B3242-2841-45CD-8674-3D3A1D84595Cframe17" oryx:anchors="top left" style="opacity:1;fill:none" d="M 20 20 L 20 24" stroke="#000000"/> 		<circle id="_789B3242-2841-45CD-8674-3D3A1D84595Cframe18" oryx:anchors="top left" fill="black" cx="13.002" cy="5.916" r="5.417" stroke="#000000"/> 		<path id="_789B3242-2841-45CD-8674-3D3A1D84595Cframe19" oryx:anchors="top left" style="opacity:1;fill:#F0EFF0;" stroke="#000000" d="M8.043,7.083c0,0,2.814-2.426,5.376-1.807s4.624-0.693,4.624-0.693    c0.25,1.688,0.042,3.75-1.458,5.584c0,0,1.083,0.75,1.083,1.5s0.125,1.875-1,3s-5.5,1.25-6.75,0S8.668,12.834,8.668,12    s0.583-1.25,1.25-1.917C8.835,9.5,7.419,7.708,8.043,7.083z"/> 	</g> 	 	<g id="_789B3242-2841-45CD-8674-3D3A1D84595CserviceTask" transform="scale(0.7,0.7) translate(8,8)" display="none"> 		<polygon oryx:anchors="top left" id="_789B3242-2841-45CD-8674-3D3A1D84595Cframe20" style="opacity:1;fill:#ffffff" stroke="#000000" points="15.392,5.064 17.954,2.502 20.347,4.895 17.786,7.455     18.729,9.732 22.353,9.732 22.353,13.115 18.731,13.115 17.788,15.392 20.351,17.955 17.958,20.347 15.397,17.786 13.12,18.729     13.12,22.353 9.737,22.353 9.737,18.731 7.46,17.788 4.897,20.35 2.506,17.958 5.066,15.397 4.124,13.12 0.5,13.12 0.5,9.737     4.121,9.737 5.065,7.461 2.503,4.898 4.895,2.506 7.455,5.066 9.732,4.125 9.732,0.5 13.116,0.5 13.116,4.121 "/> 		<circle oryx:anchors="top left" id="_789B3242-2841-45CD-8674-3D3A1D84595Cframe21" style="opacity:1;fill:none" stroke="#000000" cx="11.427" cy="11.426" r="3.714"/> 		<polygon oryx:anchors="top left" id="_789B3242-2841-45CD-8674-3D3A1D84595Cframe22" style="opacity:1;fill:#ffffff" stroke="#000000" points="21.392,11.064 23.954,8.502 26.347,10.895 23.786,13.455     24.729,15.732 28.353,15.732 28.353,19.115 24.731,19.115 23.788,21.392 26.351,23.955 23.958,26.347 21.397,23.786 19.12,24.729     19.12,28.353 15.737,28.353 15.737,24.731 13.46,23.788 10.897,26.35 8.506,23.958 11.066,21.397 10.124,19.12 6.5,19.12     6.5,15.737 10.121,15.737 11.065,13.461 8.503,10.898 10.895,8.506 13.455,11.066 15.732,10.125 15.732,6.5 19.116,6.5     19.116,10.121 "/> 		<circle oryx:anchors="top left" id="_789B3242-2841-45CD-8674-3D3A1D84595Cframe23" style="opacity:1;fill:none;" stroke="#000000" cx="17.427" cy="17.426" r="3.714"/> 	</g> 	 	<g id="_789B3242-2841-45CD-8674-3D3A1D84595CsendTask" display="none"> 		<path id="_789B3242-2841-45CD-8674-3D3A1D84595Cstframe24" oryx:anchors="left top" stroke="#FFFFFF" fill="black" stroke-width="1" d="M8,11 L8,21 L24,21 L24,11 L16,17z"/> 		<path id="_789B3242-2841-45CD-8674-3D3A1D84595Cstframe25" oryx:anchors="left top" stroke="#FFFFFF" fill="black" stroke-width="1" d="M7,10 L16,17 L25 10z"/> 	</g> 	 	<g id="_789B3242-2841-45CD-8674-3D3A1D84595CreceiveTask" display="none"> 		<path id="_789B3242-2841-45CD-8674-3D3A1D84595Cframe26" oryx:anchors="left top" stroke="#000000" fill="none" stroke-width="1" d="M8,11 L8,21 L24,21 L24,11z M8,11 L16,17 L24,11"/> 	</g> 	 	<g id="_789B3242-2841-45CD-8674-3D3A1D84595Cnone" display="inherit"/>  	<g id="_789B3242-2841-45CD-8674-3D3A1D84595Csequential" display="none">         <path oryx:anchors="bottom" fill="none" stroke="#000000" stroke-width="2" d="M46,76h10M46,72h10 M46,68h10" id="_789B3242-2841-45CD-8674-3D3A1D84595C__789B3242-2841-45CD-8674-3D3A1D84595C_20"/>     </g>   </g></g><g class="children" style="overflow:hidden"/><g class="edge"/></g><g class="controls"><g class="dockers"/><g class="magnets" transform="translate(375, 60)"><g pointer-events="all" display="none" transform="translate(-7, 12)"><circle cx="8" cy="8" r="4" stroke="none" fill="red" fill-opacity="0.3"/></g><g pointer-events="all" display="none" transform="translate(-7, 32)"><circle cx="8" cy="8" r="4" stroke="none" fill="red" fill-opacity="0.3"/></g><g pointer-events="all" display="none" transform="translate(-7, 52)"><circle cx="8" cy="8" r="4" stroke="none" fill="red" fill-opacity="0.3"/></g><g pointer-events="all" display="none" transform="translate(17, 71)"><circle cx="8" cy="8" r="4" stroke="none" fill="red" fill-opacity="0.3"/></g><g pointer-events="all" display="none" transform="translate(42, 71)"><circle cx="8" cy="8" r="4" stroke="none" fill="red" fill-opacity="0.3"/></g><g pointer-events="all" display="none" transform="translate(67, 71)"><circle cx="8" cy="8" r="4" stroke="none" fill="red" fill-opacity="0.3"/></g><g pointer-events="all" display="none" transform="translate(91, 12)"><circle cx="8" cy="8" r="4" stroke="none" fill="red" fill-opacity="0.3"/></g><g pointer-events="all" display="none" transform="translate(91, 32)"><circle cx="8" cy="8" r="4" stroke="none" fill="red" fill-opacity="0.3"/></g><g pointer-events="all" display="none" transform="translate(91, 52)"><circle cx="8" cy="8" r="4" stroke="none" fill="red" fill-opacity="0.3"/></g><g pointer-events="all" display="none" transform="translate(17, -7)"><circle cx="8" cy="8" r="4" stroke="none" fill="red" fill-opacity="0.3"/></g><g pointer-events="all" display="none" transform="translate(42, -7)"><circle cx="8" cy="8" r="4" stroke="none" fill="red" fill-opacity="0.3"/></g><g pointer-events="all" display="none" transform="translate(67, -7)"><circle cx="8" cy="8" r="4" stroke="none" fill="red" fill-opacity="0.3"/></g><g pointer-events="all" display="none" transform="translate(42, 32)"><circle cx="8" cy="8" r="4" stroke="none" fill="red" fill-opacity="0.3"/></g></g></g></g><g id="_ED9229D9-B077-43B8-B7A0-16D1457BAED2" bpmn2nodeid="_401A445D-421F-47BB-AB70-3A2F5886F0D7"><g class="stencils" transform="translate(360, 315)"><g class="me"><g pointer-events="fill" oryx:minimumSize="50 40" id="_ED9229D9-B077-43B8-B7A0-16D1457BAED2">   	<defs id="_ED9229D9-B077-43B8-B7A0-16D1457BAED2__ED9229D9-B077-43B8-B7A0-16D1457BAED2_17"> 		<radialGradient id="_ED9229D9-B077-43B8-B7A0-16D1457BAED2background" cx="10%" cy="10%" r="100%" fx="10%" fy="10%"> 			<stop offset="0%" stop-color="#ffffff" stop-opacity="1" id="_ED9229D9-B077-43B8-B7A0-16D1457BAED2__ED9229D9-B077-43B8-B7A0-16D1457BAED2_18"/> 			<stop id="_ED9229D9-B077-43B8-B7A0-16D1457BAED2fill_el" offset="100%" stop-color="#fafad2" stop-opacity="1"/> 		</radialGradient> 		<radialGradient id="_ED9229D9-B077-43B8-B7A0-16D1457BAED2borderbackground" cx="10%" cy="10%" r="100%" fx="10%" fy="10%"> 			<stop offset="0%" stop-color="#ffffff" stop-opacity="1" id="_ED9229D9-B077-43B8-B7A0-16D1457BAED2__ED9229D9-B077-43B8-B7A0-16D1457BAED2_19"/> 			<stop id="_ED9229D9-B077-43B8-B7A0-16D1457BAED2fill_border" offset="100%" stop-color="#000000" stop-opacity="1" stroke="#000000"/> 		</radialGradient> 	</defs> 	 	<rect id="_ED9229D9-B077-43B8-B7A0-16D1457BAED2text_frame" oryx:anchors="bottom top right left" x="1" y="1" width="94" height="79" rx="10" ry="10" stroke="none" stroke-width="0" fill="none"/> 	<rect id="_ED9229D9-B077-43B8-B7A0-16D1457BAED2bg_frame" oryx:resize="vertical horizontal" x="0" y="0" width="100" height="80" rx="10" ry="10" stroke="#000000" stroke-width="1" fill="url(#_ED9229D9-B077-43B8-B7A0-16D1457BAED2background) #ffffcc"/> 		<text font-size="12" id="_ED9229D9-B077-43B8-B7A0-16D1457BAED2text_name" x="50" y="40" oryx:align="middle center" oryx:fittoelem="text_frame" stroke="black" text-anchor="middle" stroke-width="0pt" letter-spacing="-0.01px" fill="#000000" transform="rotate(0 50 40)" visibility="inherit" oryx:fontSize="12"><tspan x="50" y="40" dy="-1">Determine </tspan><tspan x="50" y="40" dy="11">Documents</tspan></text>     <g id="_ED9229D9-B077-43B8-B7A0-16D1457BAED2manualTask" transform="scale(0.7,0.7) translate(8,8)" display="none">     	<path oryx:anchors="top left" id="_ED9229D9-B077-43B8-B7A0-16D1457BAED2frame" style="opacity:1;fill:none;fill-opacity:1;stroke-width:1" d="M0.5,3.751l4.083-3.25c0,0,11.166,0.083,12.083,0.083s-2.417,2.917-1.5,2.917     s11.667,0,12.584,0c1.166,1.708-0.168,3.167-0.834,3.667s0.875,1.917-1,4.417c-0.75,0.25,0.75,1.875-1.333,3.333     c-1.167,0.583,0.583,1.542-1.25,2.833c-1.167,0-20.833,0.083-20.833,0.083l-2-1.333V3.751z" stroke="#000000"/> 		<path id="_ED9229D9-B077-43B8-B7A0-16D1457BAED2frame2" oryx:anchors="top left" style="opacity:1;fill:none;stroke-width:2" d="M 13.5 7 L 27 7" stroke="#000000"/> 		<path id="_ED9229D9-B077-43B8-B7A0-16D1457BAED2frame3" oryx:anchors="top left" style="opacity:1;fill:none;stroke-width:2" d="M 13.5 11 L 26 11" stroke="#000000"/> 		<path id="_ED9229D9-B077-43B8-B7A0-16D1457BAED2frame4" oryx:anchors="top left" style="opacity:1;fill:none;stroke-width:1.5" d="M 14 14.5 L 25 14.5" stroke="#000000"/> 		<path id="_ED9229D9-B077-43B8-B7A0-16D1457BAED2frame5" oryx:anchors="top left" style="opacity:1;fill:none;stroke-width:1.5" d="M 8.2 3.1 L 15 3.1" stroke="#000000"/> 	</g> 	 	<g id="_ED9229D9-B077-43B8-B7A0-16D1457BAED2businessRuleTask" transform="scale(0.7,0.7) translate(8,8)" display="inherit"> 		<rect id="_ED9229D9-B077-43B8-B7A0-16D1457BAED2frame6" oryx:anchors="top left" x="0" y="0" width="22" height="4" style="opacity:1;fill:#B3B1B3;fill-opacity:1;" stroke="#000000"/> 		<rect id="_ED9229D9-B077-43B8-B7A0-16D1457BAED2frame7" oryx:anchors="top left" x="0" y="4" style="opacity:1;fill:none;" width="22" height="12" stroke="#000000"/> 		<path id="_ED9229D9-B077-43B8-B7A0-16D1457BAED2frame8" oryx:anchors="top left" style="opacity:1;fill:none;" d="M 0 10 L 22 10" stroke="#000000"/> 		<path id="_ED9229D9-B077-43B8-B7A0-16D1457BAED2frame9" oryx:anchors="top left" style="opacity:1; fill:none;" d="M 7 4 L 7 16" stroke="#000000"/> 	</g> 	 	<g id="_ED9229D9-B077-43B8-B7A0-16D1457BAED2scriptTask" transform="scale(0.7,0.7) translate(8,8)" display="none"> 		<path oryx:anchors="top left" id="_ED9229D9-B077-43B8-B7A0-16D1457BAED2frame10" style="opacity:1;fill:none;" stroke="#000000" d="M6.402,0.5h14.5c0,0-5.833,2.833-5.833,5.583s4.417,6,4.417,9.167    s-4.167,5.083-4.167,5.083H0.235c0,0,5-2.667,5-5s-4.583-6.75-4.583-9.25S6.402,0.5,6.402,0.5z"/> 		<path oryx:anchors="top left" id="_ED9229D9-B077-43B8-B7A0-16D1457BAED2frame11" style="opacity:1;fill:none;stroke-width:1.5" d="M 3.5 4.5 L 13.5 4.5" stroke="#000000"/> 		<path oryx:anchors="top left" id="_ED9229D9-B077-43B8-B7A0-16D1457BAED2frame12" style="opacity:1;fill:none;stroke-width:1.5" d="M 3.8 8.5 L 13.8 8.5" stroke="#000000"/> 		<path oryx:anchors="top left" id="_ED9229D9-B077-43B8-B7A0-16D1457BAED2frame13" style="opacity:1;fill:none;stroke-width:1.5" d="M 6.3 12.5 L 16.3 12.5" stroke="#000000"/> 		<path oryx:anchors="top left" id="_ED9229D9-B077-43B8-B7A0-16D1457BAED2frame14" style="opacity:1;fill:none;stroke-width:1.5" d="M 6.5 16.5 L 16.5 16.5" stroke="#000000"/> 	</g> 	 	<g id="_ED9229D9-B077-43B8-B7A0-16D1457BAED2userTask" transform="scale(0.7,0.7) translate(8,8)" display="none"> 		<path id="_ED9229D9-B077-43B8-B7A0-16D1457BAED2frame15" oryx:anchors="top left" style="opacity:1;fill:#F4F6F7" stroke="#000000" d="M0.585,24.167h24.083v-7.833c0,0-2.333-3.917-7.083-5.167h-9.25    c-4.417,1.333-7.833,5.75-7.833,5.75L0.585,24.167z"/> 		<path id="_ED9229D9-B077-43B8-B7A0-16D1457BAED2frame16" oryx:anchors="top left" style="opacity:1;fill:none" d="M 6 20 L 6 24" stroke="#000000"/> 		<path id="_ED9229D9-B077-43B8-B7A0-16D1457BAED2frame17" oryx:anchors="top left" style="opacity:1;fill:none" d="M 20 20 L 20 24" stroke="#000000"/> 		<circle id="_ED9229D9-B077-43B8-B7A0-16D1457BAED2frame18" oryx:anchors="top left" fill="black" cx="13.002" cy="5.916" r="5.417" stroke="#000000"/> 		<path id="_ED9229D9-B077-43B8-B7A0-16D1457BAED2frame19" oryx:anchors="top left" style="opacity:1;fill:#F0EFF0;" stroke="#000000" d="M8.043,7.083c0,0,2.814-2.426,5.376-1.807s4.624-0.693,4.624-0.693    c0.25,1.688,0.042,3.75-1.458,5.584c0,0,1.083,0.75,1.083,1.5s0.125,1.875-1,3s-5.5,1.25-6.75,0S8.668,12.834,8.668,12    s0.583-1.25,1.25-1.917C8.835,9.5,7.419,7.708,8.043,7.083z"/> 	</g> 	 	<g id="_ED9229D9-B077-43B8-B7A0-16D1457BAED2serviceTask" transform="scale(0.7,0.7) translate(8,8)" display="none"> 		<polygon oryx:anchors="top left" id="_ED9229D9-B077-43B8-B7A0-16D1457BAED2frame20" style="opacity:1;fill:#ffffff" stroke="#000000" points="15.392,5.064 17.954,2.502 20.347,4.895 17.786,7.455     18.729,9.732 22.353,9.732 22.353,13.115 18.731,13.115 17.788,15.392 20.351,17.955 17.958,20.347 15.397,17.786 13.12,18.729     13.12,22.353 9.737,22.353 9.737,18.731 7.46,17.788 4.897,20.35 2.506,17.958 5.066,15.397 4.124,13.12 0.5,13.12 0.5,9.737     4.121,9.737 5.065,7.461 2.503,4.898 4.895,2.506 7.455,5.066 9.732,4.125 9.732,0.5 13.116,0.5 13.116,4.121 "/> 		<circle oryx:anchors="top left" id="_ED9229D9-B077-43B8-B7A0-16D1457BAED2frame21" style="opacity:1;fill:none" stroke="#000000" cx="11.427" cy="11.426" r="3.714"/> 		<polygon oryx:anchors="top left" id="_ED9229D9-B077-43B8-B7A0-16D1457BAED2frame22" style="opacity:1;fill:#ffffff" stroke="#000000" points="21.392,11.064 23.954,8.502 26.347,10.895 23.786,13.455     24.729,15.732 28.353,15.732 28.353,19.115 24.731,19.115 23.788,21.392 26.351,23.955 23.958,26.347 21.397,23.786 19.12,24.729     19.12,28.353 15.737,28.353 15.737,24.731 13.46,23.788 10.897,26.35 8.506,23.958 11.066,21.397 10.124,19.12 6.5,19.12     6.5,15.737 10.121,15.737 11.065,13.461 8.503,10.898 10.895,8.506 13.455,11.066 15.732,10.125 15.732,6.5 19.116,6.5     19.116,10.121 "/> 		<circle oryx:anchors="top left" id="_ED9229D9-B077-43B8-B7A0-16D1457BAED2frame23" style="opacity:1;fill:none;" stroke="#000000" cx="17.427" cy="17.426" r="3.714"/> 	</g> 	 	<g id="_ED9229D9-B077-43B8-B7A0-16D1457BAED2sendTask" display="none"> 		<path id="_ED9229D9-B077-43B8-B7A0-16D1457BAED2stframe24" oryx:anchors="left top" stroke="#FFFFFF" fill="black" stroke-width="1" d="M8,11 L8,21 L24,21 L24,11 L16,17z"/> 		<path id="_ED9229D9-B077-43B8-B7A0-16D1457BAED2stframe25" oryx:anchors="left top" stroke="#FFFFFF" fill="black" stroke-width="1" d="M7,10 L16,17 L25 10z"/> 	</g> 	 	<g id="_ED9229D9-B077-43B8-B7A0-16D1457BAED2receiveTask" display="none"> 		<path id="_ED9229D9-B077-43B8-B7A0-16D1457BAED2frame26" oryx:anchors="left top" stroke="#000000" fill="none" stroke-width="1" d="M8,11 L8,21 L24,21 L24,11z M8,11 L16,17 L24,11"/> 	</g> 	 	<g id="_ED9229D9-B077-43B8-B7A0-16D1457BAED2none" display="inherit"/>  	<g id="_ED9229D9-B077-43B8-B7A0-16D1457BAED2sequential" display="none">         <path oryx:anchors="bottom" fill="none" stroke="#000000" stroke-width="2" d="M46,76h10M46,72h10 M46,68h10" id="_ED9229D9-B077-43B8-B7A0-16D1457BAED2__ED9229D9-B077-43B8-B7A0-16D1457BAED2_20"/>     </g>   </g></g><g class="children" style="overflow:hidden"/><g class="edge"/></g><g class="controls"><g class="dockers"/><g class="magnets" transform="translate(360, 315)"><g pointer-events="all" display="none" transform="translate(-7, 12)"><circle cx="8" cy="8" r="4" stroke="none" fill="red" fill-opacity="0.3"/></g><g pointer-events="all" display="none" transform="translate(-7, 32)"><circle cx="8" cy="8" r="4" stroke="none" fill="red" fill-opacity="0.3"/></g><g pointer-events="all" display="none" transform="translate(-7, 52)"><circle cx="8" cy="8" r="4" stroke="none" fill="red" fill-opacity="0.3"/></g><g pointer-events="all" display="none" transform="translate(17, 71)"><circle cx="8" cy="8" r="4" stroke="none" fill="red" fill-opacity="0.3"/></g><g pointer-events="all" display="none" transform="translate(42, 71)"><circle cx="8" cy="8" r="4" stroke="none" fill="red" fill-opacity="0.3"/></g><g pointer-events="all" display="none" transform="translate(67, 71)"><circle cx="8" cy="8" r="4" stroke="none" fill="red" fill-opacity="0.3"/></g><g pointer-events="all" display="none" transform="translate(91, 12)"><circle cx="8" cy="8" r="4" stroke="none" fill="red" fill-opacity="0.3"/></g><g pointer-events="all" display="none" transform="translate(91, 32)"><circle cx="8" cy="8" r="4" stroke="none" fill="red" fill-opacity="0.3"/></g><g pointer-events="all" display="none" transform="translate(91, 52)"><circle cx="8" cy="8" r="4" stroke="none" fill="red" fill-opacity="0.3"/></g><g pointer-events="all" display="none" transform="translate(17, -7)"><circle cx="8" cy="8" r="4" stroke="none" fill="red" fill-opacity="0.3"/></g><g pointer-events="all" display="none" transform="translate(42, -7)"><circle cx="8" cy="8" r="4" stroke="none" fill="red" fill-opacity="0.3"/></g><g pointer-events="all" display="none" transform="translate(67, -7)"><circle cx="8" cy="8" r="4" stroke="none" fill="red" fill-opacity="0.3"/></g><g pointer-events="all" display="none" transform="translate(42, 32)"><circle cx="8" cy="8" r="4" stroke="none" fill="red" fill-opacity="0.3"/></g></g></g></g><g id="_71B8EDC2-CC55-4C4F-AF44-0491943CED31" bpmn2nodeid="_BC5B7777-D486-4928-B939-32AD601638E4"><g class="stencils" transform="translate(637, 277)"><g class="me"><g pointer-events="fill" oryx:minimumSize="120 100" oryx:maximumSize="" id="_71B8EDC2-CC55-4C4F-AF44-0491943CED31">   	<defs id="_71B8EDC2-CC55-4C4F-AF44-0491943CED31__71B8EDC2-CC55-4C4F-AF44-0491943CED31_17"> 		<radialGradient id="_71B8EDC2-CC55-4C4F-AF44-0491943CED31background" cx="10%" cy="10%" r="100%" fx="10%" fy="10%"> 			<stop offset="0%" stop-color="#ffffff" stop-opacity="1" id="_71B8EDC2-CC55-4C4F-AF44-0491943CED31__71B8EDC2-CC55-4C4F-AF44-0491943CED31_18"/> 			<stop id="_71B8EDC2-CC55-4C4F-AF44-0491943CED31fill_el" offset="100%" stop-color="#fafad2" stop-opacity="1"/> 		</radialGradient> 		<radialGradient id="_71B8EDC2-CC55-4C4F-AF44-0491943CED31borderbackground" cx="10%" cy="10%" r="100%" fx="10%" fy="10%"> 			<stop offset="0%" stop-color="#ffffff" stop-opacity="1" id="_71B8EDC2-CC55-4C4F-AF44-0491943CED31__71B8EDC2-CC55-4C4F-AF44-0491943CED31_19"/> 			<stop id="_71B8EDC2-CC55-4C4F-AF44-0491943CED31fill_border" offset="100%" stop-color="#000000" stop-opacity="1" stroke="#000000"/> 		</radialGradient> 	</defs> 	     <rect id="_71B8EDC2-CC55-4C4F-AF44-0491943CED31text_frame" oryx:anchors="bottom top right left" x="0" y="0" width="190" height="160" rx="10" ry="10" stroke="none" stroke-width="0" fill="none"/> 	<rect id="_71B8EDC2-CC55-4C4F-AF44-0491943CED31bg_frame" oryx:anchors="bottom top right left" x="0" y="0" width="200" height="160" rx="10" ry="10" stroke="#000000" stroke-width="1" fill="url(#_71B8EDC2-CC55-4C4F-AF44-0491943CED31background) white"/>     	<text font-size="12" id="_71B8EDC2-CC55-4C4F-AF44-0491943CED31text_name" x="8" y="10" oryx:align="top left" oryx:fittoelem="text_frame" oryx:anchors="left top" stroke="black" stroke-width="0pt" letter-spacing="-0.01px" fill="#000000" text-anchor="start" transform="rotate(0 8 10)" visibility="inherit" oryx:fontSize="12"><tspan x="8" y="10" dy="12">Upload Documents</tspan></text>     	 	<g id="_71B8EDC2-CC55-4C4F-AF44-0491943CED31none"/> 	<g id="_71B8EDC2-CC55-4C4F-AF44-0491943CED31parallel"> 		<path id="_71B8EDC2-CC55-4C4F-AF44-0491943CED31frame2" oryx:anchors="bottom" fill="none" stroke="#000000" d="M97 145 v10 M101 145 v10 M105 145 v10" stroke-width="2"/> 	</g> 	undefined 	undefined 	 	 	undefined 	undefined 	 	 	undefined 	undefined   </g></g><g class="children" style="overflow:hidden"/><g class="edge"/></g><g class="controls"><g class="dockers"/><g class="magnets" transform="translate(637, 277)"><g pointer-events="all" display="none" transform="translate(-7, 42)"><circle cx="8" cy="8" r="4" stroke="none" fill="red" fill-opacity="0.3"/></g><g pointer-events="all" display="none" transform="translate(-7, 72)"><circle cx="8" cy="8" r="4" stroke="none" fill="red" fill-opacity="0.3"/></g><g pointer-events="all" display="none" transform="translate(-7, 102)"><circle cx="8" cy="8" r="4" stroke="none" fill="red" fill-opacity="0.3"/></g><g pointer-events="all" display="none" transform="translate(62, 151)"><circle cx="8" cy="8" r="4" stroke="none" fill="red" fill-opacity="0.3"/></g><g pointer-events="all" display="none" transform="translate(92, 151)"><circle cx="8" cy="8" r="4" stroke="none" fill="red" fill-opacity="0.3"/></g><g pointer-events="all" display="none" transform="translate(122, 151)"><circle cx="8" cy="8" r="4" stroke="none" fill="red" fill-opacity="0.3"/></g><g pointer-events="all" display="none" transform="translate(191, 42)"><circle cx="8" cy="8" r="4" stroke="none" fill="red" fill-opacity="0.3"/></g><g pointer-events="all" display="none" transform="translate(191, 72)"><circle cx="8" cy="8" r="4" stroke="none" fill="red" fill-opacity="0.3"/></g><g pointer-events="all" display="none" transform="translate(191, 102)"><circle cx="8" cy="8" r="4" stroke="none" fill="red" fill-opacity="0.3"/></g><g pointer-events="all" display="none" transform="translate(62, -7)"><circle cx="8" cy="8" r="4" stroke="none" fill="red" fill-opacity="0.3"/></g><g pointer-events="all" display="none" transform="translate(92, -7)"><circle cx="8" cy="8" r="4" stroke="none" fill="red" fill-opacity="0.3"/></g><g pointer-events="all" display="none" transform="translate(122, -7)"><circle cx="8" cy="8" r="4" stroke="none" fill="red" fill-opacity="0.3"/></g><g pointer-events="all" display="none" transform="translate(92, 72)"><circle cx="8" cy="8" r="4" stroke="none" fill="red" fill-opacity="0.3"/></g></g></g></g><g id="_E076950E-4FF1-4D2A-955E-AF22780B4D65" bpmn2nodeid="_516FF206-3B40-4633-8E2F-4F31169C0FAE"><g class="stencils" transform="translate(960, 178)"><g class="me"><g id="_E076950E-4FF1-4D2A-955E-AF22780B4D65">      <defs id="_E076950E-4FF1-4D2A-955E-AF22780B4D65__E076950E-4FF1-4D2A-955E-AF22780B4D65_4"> 		<radialGradient id="_E076950E-4FF1-4D2A-955E-AF22780B4D65background" cx="10%" cy="10%" r="100%" fx="10%" fy="10%"> 			<stop offset="0%" stop-color="#ffffff" stop-opacity="1" id="_E076950E-4FF1-4D2A-955E-AF22780B4D65__E076950E-4FF1-4D2A-955E-AF22780B4D65_5"/> 			<stop id="_E076950E-4FF1-4D2A-955E-AF22780B4D65fill_el" offset="100%" stop-color="#f0e68c" stop-opacity="1"/> 		</radialGradient> 	</defs> 	     <path d=" M0 20.5  L20.5 0  L40 20.5  L20.5 40  z" id="_E076950E-4FF1-4D2A-955E-AF22780B4D65bg_frame" fill="url(#_E076950E-4FF1-4D2A-955E-AF22780B4D65background) white" style="stroke-width:1" stroke="#a67f00"/>     <path id="_E076950E-4FF1-4D2A-955E-AF22780B4D65frame" d=" M11.25 20.5  L30.25 20.5  M20.5 11.25  L20.5 30.25 " style="fill:none;stroke-width:3" stroke="#a67f00"/>      	<text id="_E076950E-4FF1-4D2A-955E-AF22780B4D65text_name" x="30.5" y="30.5" oryx:align="left top" stroke-width="0pt" letter-spacing="-0.01px" fill="#000000" text-anchor="start" transform="rotate(0 30.5 30.5)" visibility="inherit" oryx:fontSize="12"/> 	   </g></g><g class="children" style="overflow:hidden"/><g class="edge"/></g><g class="controls"><g class="dockers"/><g class="magnets" transform="translate(960, 178)"><g pointer-events="all" display="none" transform="translate(12.5, 12.5)"><circle cx="8" cy="8" r="4" stroke="none" fill="red" fill-opacity="0.3"/></g></g></g></g><g id="_A5615F3D-5486-420C-B40C-714B4913565B" bpmn2nodeid="_8E63C187-5C4A-4224-9D5E-36AACF77DC0A"><g class="stencils" transform="translate(1102, 184)"><g class="me"><g pointer-events="fill" id="_A5615F3D-5486-420C-B40C-714B4913565B">      <defs id="_A5615F3D-5486-420C-B40C-714B4913565B__A5615F3D-5486-420C-B40C-714B4913565B_5"> 		<radialGradient id="_A5615F3D-5486-420C-B40C-714B4913565Bbackground" cx="10%" cy="10%" r="100%" fx="10%" fy="10%"> 			<stop offset="0%" stop-color="#ffffff" stop-opacity="1" id="_A5615F3D-5486-420C-B40C-714B4913565B__A5615F3D-5486-420C-B40C-714B4913565B_6"/> 			<stop id="_A5615F3D-5486-420C-B40C-714B4913565Bfill_el" offset="100%" stop-color="#ff6347" stop-opacity="1"/> 		</radialGradient> 	</defs> 	     <circle id="_A5615F3D-5486-420C-B40C-714B4913565Bbg_frame" cx="14" cy="14" r="14" stroke="#000000" fill="url(#_A5615F3D-5486-420C-B40C-714B4913565Bbackground) white" stroke-width="3"/> 	<text font-size="11" id="_A5615F3D-5486-420C-B40C-714B4913565Btext_name" x="14" y="30" oryx:align="top center" stroke="black" stroke-width="0pt" letter-spacing="-0.01px" fill="#000000" text-anchor="middle" transform="rotate(0 14 30)" visibility="inherit" oryx:fontSize="11"/>   </g></g><g class="children" style="overflow:hidden"/><g class="edge"/></g><g class="controls"><g class="dockers"/><g class="magnets" transform="translate(1102, 184)"><g pointer-events="all" display="none" transform="translate(6, 6)"><circle cx="8" cy="8" r="4" stroke="none" fill="red" fill-opacity="0.3"/></g></g></g></g></g><g class="edge"><g id="_70B73558-ADCB-4954-8A26-EB29F33499C8" bpmn2nodeid="_4BD14346-0A1B-41AC-89BE-278A9193D512"><g class="stencils"><g class="me"><g pointer-events="painted" bpmn2nodeid="_58A79385-FD7E-421E-9701-D10BB342CA95"><path id="_70B73558-ADCB-4954-8A26-EB29F33499C8_1" d="M150.609375 180L225.09375 180 " stroke="#000000" fill="none" stroke-width="2" stroke-linecap="round" stroke-linejoin="round" marker-start="url(#_70B73558-ADCB-4954-8A26-EB29F33499C8start)" marker-end="url(#_70B73558-ADCB-4954-8A26-EB29F33499C8end)"/></g><text id="_70B73558-ADCB-4954-8A26-EB29F33499C8text_name" font-size="12" x="164.609375" y="166" oryx:edgePosition="startTop" stroke-width="0pt" letter-spacing="-0.01px" fill="#000000" text-anchor="start" transform="rotate(360 150.609375 180)" visibility="inherit" oryx:fontSize="12"/></g><g class="children" style="overflow:hidden"/><g class="edge"/></g><g class="controls"><g class="dockers"/><g class="magnets"/></g></g><g id="_EB29AD20-DC82-4C26-9C3E-BA54E559FFBA" bpmn2nodeid="_6825F177-97DE-45E2-BD26-5BFF62D954ED"><g class="stencils"><g class="me"><g pointer-events="painted" bpmn2nodeid="_7E5D40A1-EF8E-49C9-B379-3E9D8F513D3E"><path id="_EB29AD20-DC82-4C26-9C3E-BA54E559FFBA_1" d="M245 160.25L245 100 L374.78125 100 " stroke="#000000" fill="none" stroke-width="2" stroke-linecap="round" stroke-linejoin="round" marker-start="url(#_EB29AD20-DC82-4C26-9C3E-BA54E559FFBAstart)" marker-end="url(#_EB29AD20-DC82-4C26-9C3E-BA54E559FFBAend)"/></g><text id="_EB29AD20-DC82-4C26-9C3E-BA54E559FFBAtext_name" font-size="12" x="259" y="146.25" oryx:edgePosition="startTop" stroke-width="0pt" letter-spacing="-0.01px" fill="#000000" text-anchor="start" transform="rotate(270 245 160.25)" visibility="inherit" oryx:fontSize="12"/></g><g class="children" style="overflow:hidden"/><g class="edge"/></g><g class="controls"><g class="dockers"/><g class="magnets"/></g></g><g id="_E7E16753-8E3E-407C-856E-214A48F954F1" bpmn2nodeid="_28C85D2C-73F7-4728-9807-8353754F1C6B"><g class="stencils"><g class="me"><g pointer-events="painted" bpmn2nodeid="_8CA14D44-542E-427C-AEF2-F9374EEB8FCA"><path id="_E7E16753-8E3E-407C-856E-214A48F954F1_1" d="M245 200.140625L245 355 L359.37109375 355 " stroke="#000000" fill="none" stroke-width="2" stroke-linecap="round" stroke-linejoin="round" marker-start="url(#_E7E16753-8E3E-407C-856E-214A48F954F1start)" marker-end="url(#_E7E16753-8E3E-407C-856E-214A48F954F1end)"/></g><text id="_E7E16753-8E3E-407C-856E-214A48F954F1text_name" font-size="12" x="231" y="186.140625" oryx:edgePosition="startTop" stroke-width="0pt" letter-spacing="-0.01px" fill="#000000" text-anchor="end" transform="rotate(-90 245 200.140625)" visibility="inherit" oryx:fontSize="12"/></g><g class="children" style="overflow:hidden"/><g class="edge"/></g><g class="controls"><g class="dockers"/><g class="magnets"/></g></g><g id="_D5561E7D-FD5B-4404-9E37-19A16DD34E39" bpmn2nodeid="_CD9C37AE-8C55-445D-932C-11B7AAAA5B36"><g class="stencils"><g class="me"><g pointer-events="painted" bpmn2nodeid="_70C21B6C-E68B-4936-A63A-BD21EDC019A3"><path id="_D5561E7D-FD5B-4404-9E37-19A16DD34E39_1" d="M460.8163875465249 355.3108035935567L636.3672062034751 356.3845089064433 " stroke="#000000" fill="none" stroke-width="2" stroke-linecap="round" stroke-linejoin="round" marker-start="url(#_D5561E7D-FD5B-4404-9E37-19A16DD34E39start)" marker-end="url(#_D5561E7D-FD5B-4404-9E37-19A16DD34E39end)"/></g><text id="_D5561E7D-FD5B-4404-9E37-19A16DD34E39text_name" font-size="12" x="474.8163875465249" y="341.3108035935567" oryx:edgePosition="startTop" stroke-width="0pt" letter-spacing="-0.01px" fill="#000000" text-anchor="start" transform="rotate(0.3504285326541208 460.8163875465249 355.3108035935567)" visibility="inherit" oryx:fontSize="12"/></g><g class="children" style="overflow:hidden"/><g class="edge"/></g><g class="controls"><g class="dockers"/><g class="magnets"/></g></g><g id="_F631064E-583F-4F0F-8108-A50495394070" bpmn2nodeid="_D32967E3-CC77-430F-865C-38F345D19331"><g class="stencils"><g class="me"><g pointer-events="painted" bpmn2nodeid="_470F3C75-94E9-400C-B67C-89C98418B381"><path id="_F631064E-583F-4F0F-8108-A50495394070_1" d="M475.86328125 100L980 100 L980 177.859375 " stroke="#000000" fill="none" stroke-width="2" stroke-linecap="round" stroke-linejoin="round" marker-start="url(#_F631064E-583F-4F0F-8108-A50495394070start)" marker-end="url(#_F631064E-583F-4F0F-8108-A50495394070end)"/></g><text id="_F631064E-583F-4F0F-8108-A50495394070text_name" font-size="12" x="489.86328125" y="86" oryx:edgePosition="startTop" stroke-width="0pt" letter-spacing="-0.01px" fill="#000000" text-anchor="start" transform="rotate(360 475.86328125 100)" visibility="inherit" oryx:fontSize="12"/></g><g class="children" style="overflow:hidden"/><g class="edge"/></g><g class="controls"><g class="dockers"/><g class="magnets"/></g></g><g id="_5ADD76D2-4C66-4A3E-91EF-B28ABDD5020C" bpmn2nodeid="_3A94C821-6C30-4FE0-BBFE-02F07FFCD613"><g class="stencils"><g class="me"><g pointer-events="painted" bpmn2nodeid="_FD680D58-21BC-4E42-96FA-67B1AC114ED8"><path id="_5ADD76D2-4C66-4A3E-91EF-B28ABDD5020C_1" d="M837.66796875 357L980 357 L980 217.6328125 " stroke="#000000" fill="none" stroke-width="2" stroke-linecap="round" stroke-linejoin="round" marker-start="url(#_5ADD76D2-4C66-4A3E-91EF-B28ABDD5020Cstart)" marker-end="url(#_5ADD76D2-4C66-4A3E-91EF-B28ABDD5020Cend)"/></g><text id="_5ADD76D2-4C66-4A3E-91EF-B28ABDD5020Ctext_name" font-size="12" x="851.66796875" y="343" oryx:edgePosition="startTop" stroke-width="0pt" letter-spacing="-0.01px" fill="#000000" text-anchor="start" transform="rotate(360 837.66796875 357)" visibility="inherit" oryx:fontSize="12"/></g><g class="children" style="overflow:hidden"/><g class="edge"/></g><g class="controls"><g class="dockers"/><g class="magnets"/></g></g><g id="_DB49F374-DFBD-4BA3-833C-3B46A6973999" bpmn2nodeid="_FCED7F5F-5922-4EA3-A95A-48865592C21C"><g class="stencils"><g class="me"><g pointer-events="painted" bpmn2nodeid="_0749AFD4-A18A-4442-87A8-C103F70915A7"><path id="_DB49F374-DFBD-4BA3-833C-3B46A6973999_1" d="M1000.125 198L1101.1875 198 " stroke="#000000" fill="none" stroke-width="2" stroke-linecap="round" stroke-linejoin="round" marker-start="url(#_DB49F374-DFBD-4BA3-833C-3B46A6973999start)" marker-end="url(#_DB49F374-DFBD-4BA3-833C-3B46A6973999end)"/></g><text id="_DB49F374-DFBD-4BA3-833C-3B46A6973999text_name" font-size="12" x="1014.125" y="184" oryx:edgePosition="startTop" stroke-width="0pt" letter-spacing="-0.01px" fill="#000000" text-anchor="start" transform="rotate(360 1000.125 198)" visibility="inherit" oryx:fontSize="12"/></g><g class="children" style="overflow:hidden"/><g class="edge"/></g><g class="controls"><g class="dockers"/><g class="magnets"/></g></g></g><text id="_819FE2B1-C627-4DDA-9B3C-8BA1C35FF57A" style="stroke-width:1;fill:rgb(177,194,214);font-family:arial;font-weight:bold" font-size="12" onclick="ORYX.Plugins.CanvasTitle.openTextualAnalysis()" onmouseover="ORYX.Plugins.CanvasTitle.addToolTip('_819FE2B1-C627-4DDA-9B3C-8BA1C35FF57A')" transform="translate(10, 20)">EnrichmentProcess v.1.0 (src.EnrichmentProcess)</text></g></g></svg>