<svg xmlns="http://www.w3.org/2000/svg" xmlns:oryx="http://oryx-editor.org" id="_A829CC84-62C1-4B89-894F-92DF616AD53C" width="1170.5" height="478" xmlns:xlink="http://www.w3.org/1999/xlink" xmlns:svg="http://www.w3.org/2000/svg"><defs><marker id="_B1CF1684-3AEC-4135-BF56-63BF2BBF8D6Astart" refX="1" refY="5" markerUnits="userSpaceOnUse" markerWidth="17" markerHeight="11" orient="auto" fill="#000000" stroke="#000000"> 	  		<path id="_B1CF1684-3AEC-4135-BF56-63BF2BBF8D6Aconditional" d="M 0 5 L 8 0 L 16 5 L 8 10 L 0 5" fill="white" stroke="#000000" stroke-width="1" display="none"/> 			<path id="_B1CF1684-3AEC-4135-BF56-63BF2BBF8D6Adefault" d="M 5 0 L 11 10" fill="white" stroke="#000000" stroke-width="1" display="none"/> 	  	</marker><marker id="_B1CF1684-3AEC-4135-BF56-63BF2BBF8D6Aend" refX="15" refY="6" markerUnits="userSpaceOnUse" markerWidth="15" markerHeight="12" orient="auto" fill="#000000" stroke="#000000"> 	  		<path id="_B1CF1684-3AEC-4135-BF56-63BF2BBF8D6Aframe2" d="M 0 1 L 15 6 L 0 11z" fill="#000000" stroke="#000000" stroke-linejoin="round" stroke-width="2"/> 	  	</marker><marker id="_C0A42E52-ACA1-4FAF-9DDD-74DDC426BA58start" refX="1" refY="5" markerUnits="userSpaceOnUse" markerWidth="17" markerHeight="11" orient="auto" fill="#000000" stroke="#000000"> 	  		<path id="_C0A42E52-ACA1-4FAF-9DDD-74DDC426BA58conditional" d="M 0 5 L 8 0 L 16 5 L 8 10 L 0 5" fill="white" stroke="#000000" stroke-width="1" display="none"/> 			<path id="_C0A42E52-ACA1-4FAF-9DDD-74DDC426BA58default" d="M 5 0 L 11 10" fill="white" stroke="#000000" stroke-width="1" display="none"/> 	  	</marker><marker id="_C0A42E52-ACA1-4FAF-9DDD-74DDC426BA58end" refX="15" refY="6" markerUnits="userSpaceOnUse" markerWidth="15" markerHeight="12" orient="auto" fill="#000000" stroke="#000000"> 	  		<path id="_C0A42E52-ACA1-4FAF-9DDD-74DDC426BA58frame2" d="M 0 1 L 15 6 L 0 11z" fill="#000000" stroke="#000000" stroke-linejoin="round" stroke-width="2"/> 	  	</marker><marker id="_4E24DBD9-83F2-43DB-A2F1-E6AD7FAF3E89start" refX="1" refY="5" markerUnits="userSpaceOnUse" markerWidth="17" markerHeight="11" orient="auto" fill="#000000" stroke="#000000"> 	  		<path id="_4E24DBD9-83F2-43DB-A2F1-E6AD7FAF3E89conditional" d="M 0 5 L 8 0 L 16 5 L 8 10 L 0 5" fill="white" stroke="#000000" stroke-width="1" display="none"/> 			<path id="_4E24DBD9-83F2-43DB-A2F1-E6AD7FAF3E89default" d="M 5 0 L 11 10" fill="white" stroke="#000000" stroke-width="1" display="none"/> 	  	</marker><marker id="_4E24DBD9-83F2-43DB-A2F1-E6AD7FAF3E89end" refX="15" refY="6" markerUnits="userSpaceOnUse" markerWidth="15" markerHeight="12" orient="auto" fill="#000000" stroke="#000000"> 	  		<path id="_4E24DBD9-83F2-43DB-A2F1-E6AD7FAF3E89frame2" d="M 0 1 L 15 6 L 0 11z" fill="#000000" stroke="#000000" stroke-linejoin="round" stroke-width="2"/> 	  	</marker><marker id="_9E2B9AF7-B81C-4DD1-9546-C6B0E0351910start" refX="1" refY="5" markerUnits="userSpaceOnUse" markerWidth="17" markerHeight="11" orient="auto" fill="#000000" stroke="#000000"> 	  		<path id="_9E2B9AF7-B81C-4DD1-9546-C6B0E0351910conditional" d="M 0 5 L 8 0 L 16 5 L 8 10 L 0 5" fill="white" stroke="#000000" stroke-width="1" display="none"/> 			<path id="_9E2B9AF7-B81C-4DD1-9546-C6B0E0351910default" d="M 5 0 L 11 10" fill="white" stroke="#000000" stroke-width="1" display="none"/> 	  	</marker><marker id="_9E2B9AF7-B81C-4DD1-9546-C6B0E0351910end" refX="15" refY="6" markerUnits="userSpaceOnUse" markerWidth="15" markerHeight="12" orient="auto" fill="#000000" stroke="#000000"> 	  		<path id="_9E2B9AF7-B81C-4DD1-9546-C6B0E0351910frame2" d="M 0 1 L 15 6 L 0 11z" fill="#000000" stroke="#000000" stroke-linejoin="round" stroke-width="2"/> 	  	</marker><marker id="_F1EE789A-3229-428A-828D-23A62A88C9CDstart" refX="1" refY="5" markerUnits="userSpaceOnUse" markerWidth="17" markerHeight="11" orient="auto" fill="#000000" stroke="#000000"> 	  		<path id="_F1EE789A-3229-428A-828D-23A62A88C9CDconditional" d="M 0 5 L 8 0 L 16 5 L 8 10 L 0 5" fill="white" stroke="#000000" stroke-width="1" display="none"/> 			<path id="_F1EE789A-3229-428A-828D-23A62A88C9CDdefault" d="M 5 0 L 11 10" fill="white" stroke="#000000" stroke-width="1" display="none"/> 	  	</marker><marker id="_F1EE789A-3229-428A-828D-23A62A88C9CDend" refX="15" refY="6" markerUnits="userSpaceOnUse" markerWidth="15" markerHeight="12" orient="auto" fill="#000000" stroke="#000000"> 	  		<path id="_F1EE789A-3229-428A-828D-23A62A88C9CDframe2" d="M 0 1 L 15 6 L 0 11z" fill="#000000" stroke="#000000" stroke-linejoin="round" stroke-width="2"/> 	  	</marker><marker id="_D555DCC9-904F-43CF-95B5-8BF49D6F7065start" refX="1" refY="5" markerUnits="userSpaceOnUse" markerWidth="17" markerHeight="11" orient="auto" fill="#000000" stroke="#000000"> 	  		<path id="_D555DCC9-904F-43CF-95B5-8BF49D6F7065conditional" d="M 0 5 L 8 0 L 16 5 L 8 10 L 0 5" fill="white" stroke="#000000" stroke-width="1" display="none"/> 			<path id="_D555DCC9-904F-43CF-95B5-8BF49D6F7065default" d="M 5 0 L 11 10" fill="white" stroke="#000000" stroke-width="1" display="none"/> 	  	</marker><marker id="_D555DCC9-904F-43CF-95B5-8BF49D6F7065end" refX="15" refY="6" markerUnits="userSpaceOnUse" markerWidth="15" markerHeight="12" orient="auto" fill="#000000" stroke="#000000"> 	  		<path id="_D555DCC9-904F-43CF-95B5-8BF49D6F7065frame2" d="M 0 1 L 15 6 L 0 11z" fill="#000000" stroke="#000000" stroke-linejoin="round" stroke-width="2"/> 	  	</marker><marker id="_EFF477F1-4567-4A66-A144-EE46E2522B53start" refX="1" refY="5" markerUnits="userSpaceOnUse" markerWidth="17" markerHeight="11" orient="auto" fill="#000000" stroke="#000000"> 	  		<path id="_EFF477F1-4567-4A66-A144-EE46E2522B53conditional" d="M 0 5 L 8 0 L 16 5 L 8 10 L 0 5" fill="white" stroke="#000000" stroke-width="1" display="none"/> 			<path id="_EFF477F1-4567-4A66-A144-EE46E2522B53default" d="M 5 0 L 11 10" fill="white" stroke="#000000" stroke-width="1" display="none"/> 	  	</marker><marker id="_EFF477F1-4567-4A66-A144-EE46E2522B53end" refX="15" refY="6" markerUnits="userSpaceOnUse" markerWidth="15" markerHeight="12" orient="auto" fill="#000000" stroke="#000000"> 	  		<path id="_EFF477F1-4567-4A66-A144-EE46E2522B53frame2" d="M 0 1 L 15 6 L 0 11z" fill="#000000" stroke="#000000" stroke-linejoin="round" stroke-width="2"/> 	  	</marker></defs><g stroke="none" font-family="Verdana, sans-serif" font-size-adjust="none" font-style="normal" font-variant="normal" font-weight="normal" line-heigth="normal" font-size="12"><g class="stencils" transform="translate(15.5, 16)"><g class="me"/><g class="children"><g id="_A6F14220-00F4-467B-9C6A-C377064879A5" bpmn2nodeid="_F7D3CCEC-4B9E-4973-AB71-907AD1A1FBDC"><g class="stencils" transform="translate(120, 165)"><g class="me"><g pointer-events="fill" id="_A6F14220-00F4-467B-9C6A-C377064879A5">        <defs id="_A6F14220-00F4-467B-9C6A-C377064879A5__A6F14220-00F4-467B-9C6A-C377064879A5_5"> 		<radialGradient id="_A6F14220-00F4-467B-9C6A-C377064879A5background" cx="10%" cy="10%" r="100%" fx="10%" fy="10%"> 			<stop offset="0%" stop-color="#ffffff" stop-opacity="1" id="_A6F14220-00F4-467B-9C6A-C377064879A5__A6F14220-00F4-467B-9C6A-C377064879A5_6"/> 			<stop id="_A6F14220-00F4-467B-9C6A-C377064879A5fill_el" offset="100%" stop-color="#9acd32" stop-opacity="1"/> 		</radialGradient> 	</defs> 	     <circle id="_A6F14220-00F4-467B-9C6A-C377064879A5bg_frame" cx="15" cy="15" r="15" stroke="#000000" fill="url(#_A6F14220-00F4-467B-9C6A-C377064879A5background) white" stroke-width="1" style="stroke-dasharray: 5.5, 3"/>      <circle id="_A6F14220-00F4-467B-9C6A-C377064879A5frame" cx="15" cy="15" r="15" stroke="#000000" fill="none" stroke-width="1" display="inherit"/>  	<text font-size="11" id="_A6F14220-00F4-467B-9C6A-C377064879A5text_name" x="15" y="32" oryx:align="top center" stroke="black" stroke-width="0pt" letter-spacing="-0.01px" fill="#000000" text-anchor="middle" transform="rotate(0 15 32)" visibility="inherit" oryx:fontSize="11"/>   </g></g><g class="children" style="overflow:hidden"/><g class="edge"/></g><g class="controls"><g class="dockers"/><g class="magnets" transform="translate(120, 165)"><g pointer-events="all" display="none" transform="translate(7, 7)"><circle cx="8" cy="8" r="4" stroke="none" fill="red" fill-opacity="0.3"/></g></g></g></g><g id="_2AB82ACB-5FB0-4391-8C04-9C4524DA77FE" bpmn2nodeid="_0A1D9C75-7ED4-4849-B1F5-2AC70F3AEE8F"><g class="stencils" transform="translate(225, 160)"><g class="me"><g id="_2AB82ACB-5FB0-4391-8C04-9C4524DA77FE">      <defs id="_2AB82ACB-5FB0-4391-8C04-9C4524DA77FE__2AB82ACB-5FB0-4391-8C04-9C4524DA77FE_4"> 		<radialGradient id="_2AB82ACB-5FB0-4391-8C04-9C4524DA77FEbackground" cx="10%" cy="10%" r="100%" fx="10%" fy="10%"> 			<stop offset="0%" stop-color="#ffffff" stop-opacity="1" id="_2AB82ACB-5FB0-4391-8C04-9C4524DA77FE__2AB82ACB-5FB0-4391-8C04-9C4524DA77FE_5"/> 			<stop id="_2AB82ACB-5FB0-4391-8C04-9C4524DA77FEfill_el" offset="100%" stop-color="#f0e68c" stop-opacity="1"/> 		</radialGradient> 	</defs> 	     <path d=" M0 20.5  L20.5 0  L40 20.5  L20.5 40  z" id="_2AB82ACB-5FB0-4391-8C04-9C4524DA77FEbg_frame" fill="url(#_2AB82ACB-5FB0-4391-8C04-9C4524DA77FEbackground) white" style="stroke-width:1" stroke="#a67f00"/>     <path id="_2AB82ACB-5FB0-4391-8C04-9C4524DA77FEframe" d=" M11.25 20.5  L30.25 20.5  M20.5 11.25  L20.5 30.25 " style="fill:none;stroke-width:3" stroke="#a67f00"/>      	<text id="_2AB82ACB-5FB0-4391-8C04-9C4524DA77FEtext_name" x="30.5" y="30.5" oryx:align="left top" stroke-width="0pt" letter-spacing="-0.01px" fill="#000000" text-anchor="start" transform="rotate(0 30.5 30.5)" visibility="inherit" oryx:fontSize="12"/> 	   </g></g><g class="children" style="overflow:hidden"/><g class="edge"/></g><g class="controls"><g class="dockers"/><g class="magnets" transform="translate(225, 160)"><g pointer-events="all" display="none" transform="translate(12.5, 12.5)"><circle cx="8" cy="8" r="4" stroke="none" fill="red" fill-opacity="0.3"/></g></g></g></g><g id="_3057BB1F-3E6E-4FCD-9349-50E802F0EE84" bpmn2nodeid="_F28F20D2-3F5B-47E3-8C86-05F89ACB4974"><g class="stencils" transform="translate(375, 60)"><g class="me"><g pointer-events="fill" oryx:minimumSize="50 40" id="_3057BB1F-3E6E-4FCD-9349-50E802F0EE84">   	<defs id="_3057BB1F-3E6E-4FCD-9349-50E802F0EE84__3057BB1F-3E6E-4FCD-9349-50E802F0EE84_17"> 		<radialGradient id="_3057BB1F-3E6E-4FCD-9349-50E802F0EE84background" cx="10%" cy="10%" r="100%" fx="10%" fy="10%"> 			<stop offset="0%" stop-color="#ffffff" stop-opacity="1" id="_3057BB1F-3E6E-4FCD-9349-50E802F0EE84__3057BB1F-3E6E-4FCD-9349-50E802F0EE84_18"/> 			<stop id="_3057BB1F-3E6E-4FCD-9349-50E802F0EE84fill_el" offset="100%" stop-color="#fafad2" stop-opacity="1"/> 		</radialGradient> 		<radialGradient id="_3057BB1F-3E6E-4FCD-9349-50E802F0EE84borderbackground" cx="10%" cy="10%" r="100%" fx="10%" fy="10%"> 			<stop offset="0%" stop-color="#ffffff" stop-opacity="1" id="_3057BB1F-3E6E-4FCD-9349-50E802F0EE84__3057BB1F-3E6E-4FCD-9349-50E802F0EE84_19"/> 			<stop id="_3057BB1F-3E6E-4FCD-9349-50E802F0EE84fill_border" offset="100%" stop-color="#000000" stop-opacity="1" stroke="#000000"/> 		</radialGradient> 	</defs> 	 	<rect id="_3057BB1F-3E6E-4FCD-9349-50E802F0EE84text_frame" oryx:anchors="bottom top right left" x="1" y="1" width="94" height="79" rx="10" ry="10" stroke="none" stroke-width="0" fill="none"/> 	<rect id="_3057BB1F-3E6E-4FCD-9349-50E802F0EE84bg_frame" oryx:resize="vertical horizontal" x="0" y="0" width="100" height="80" rx="10" ry="10" stroke="#000000" stroke-width="1" fill="url(#_3057BB1F-3E6E-4FCD-9349-50E802F0EE84background) #ffffcc"/> 		<text font-size="12" id="_3057BB1F-3E6E-4FCD-9349-50E802F0EE84text_name" x="50" y="40" oryx:align="middle center" oryx:fittoelem="text_frame" stroke="black" text-anchor="middle" stroke-width="0pt" letter-spacing="-0.01px" fill="#000000" transform="rotate(0 50 40)" visibility="inherit" oryx:fontSize="12"><tspan x="50" y="40" dy="-1">Add Client </tspan><tspan x="50" y="40" dy="11" id="ext-gen620">Details</tspan></text>     <g id="_3057BB1F-3E6E-4FCD-9349-50E802F0EE84manualTask" transform="scale(0.7,0.7) translate(8,8)" display="none">     	<path oryx:anchors="top left" id="_3057BB1F-3E6E-4FCD-9349-50E802F0EE84frame" style="opacity:1;fill:none;fill-opacity:1;stroke-width:1" d="M0.5,3.751l4.083-3.25c0,0,11.166,0.083,12.083,0.083s-2.417,2.917-1.5,2.917     s11.667,0,12.584,0c1.166,1.708-0.168,3.167-0.834,3.667s0.875,1.917-1,4.417c-0.75,0.25,0.75,1.875-1.333,3.333     c-1.167,0.583,0.583,1.542-1.25,2.833c-1.167,0-20.833,0.083-20.833,0.083l-2-1.333V3.751z" stroke="#000000"/> 		<path id="_3057BB1F-3E6E-4FCD-9349-50E802F0EE84frame2" oryx:anchors="top left" style="opacity:1;fill:none;stroke-width:2" d="M 13.5 7 L 27 7" stroke="#000000"/> 		<path id="_3057BB1F-3E6E-4FCD-9349-50E802F0EE84frame3" oryx:anchors="top left" style="opacity:1;fill:none;stroke-width:2" d="M 13.5 11 L 26 11" stroke="#000000"/> 		<path id="_3057BB1F-3E6E-4FCD-9349-50E802F0EE84frame4" oryx:anchors="top left" style="opacity:1;fill:none;stroke-width:1.5" d="M 14 14.5 L 25 14.5" stroke="#000000"/> 		<path id="_3057BB1F-3E6E-4FCD-9349-50E802F0EE84frame5" oryx:anchors="top left" style="opacity:1;fill:none;stroke-width:1.5" d="M 8.2 3.1 L 15 3.1" stroke="#000000"/> 	</g> 	 	<g id="_3057BB1F-3E6E-4FCD-9349-50E802F0EE84businessRuleTask" transform="scale(0.7,0.7) translate(8,8)" display="none"> 		<rect id="_3057BB1F-3E6E-4FCD-9349-50E802F0EE84frame6" oryx:anchors="top left" x="0" y="0" width="22" height="4" style="opacity:1;fill:#B3B1B3;fill-opacity:1;" stroke="#000000"/> 		<rect id="_3057BB1F-3E6E-4FCD-9349-50E802F0EE84frame7" oryx:anchors="top left" x="0" y="4" style="opacity:1;fill:none;" width="22" height="12" stroke="#000000"/> 		<path id="_3057BB1F-3E6E-4FCD-9349-50E802F0EE84frame8" oryx:anchors="top left" style="opacity:1;fill:none;" d="M 0 10 L 22 10" stroke="#000000"/> 		<path id="_3057BB1F-3E6E-4FCD-9349-50E802F0EE84frame9" oryx:anchors="top left" style="opacity:1; fill:none;" d="M 7 4 L 7 16" stroke="#000000"/> 	</g> 	 	<g id="_3057BB1F-3E6E-4FCD-9349-50E802F0EE84scriptTask" transform="scale(0.7,0.7) translate(8,8)" display="none"> 		<path oryx:anchors="top left" id="_3057BB1F-3E6E-4FCD-9349-50E802F0EE84frame10" style="opacity:1;fill:none;" stroke="#000000" d="M6.402,0.5h14.5c0,0-5.833,2.833-5.833,5.583s4.417,6,4.417,9.167    s-4.167,5.083-4.167,5.083H0.235c0,0,5-2.667,5-5s-4.583-6.75-4.583-9.25S6.402,0.5,6.402,0.5z"/> 		<path oryx:anchors="top left" id="_3057BB1F-3E6E-4FCD-9349-50E802F0EE84frame11" style="opacity:1;fill:none;stroke-width:1.5" d="M 3.5 4.5 L 13.5 4.5" stroke="#000000"/> 		<path oryx:anchors="top left" id="_3057BB1F-3E6E-4FCD-9349-50E802F0EE84frame12" style="opacity:1;fill:none;stroke-width:1.5" d="M 3.8 8.5 L 13.8 8.5" stroke="#000000"/> 		<path oryx:anchors="top left" id="_3057BB1F-3E6E-4FCD-9349-50E802F0EE84frame13" style="opacity:1;fill:none;stroke-width:1.5" d="M 6.3 12.5 L 16.3 12.5" stroke="#000000"/> 		<path oryx:anchors="top left" id="_3057BB1F-3E6E-4FCD-9349-50E802F0EE84frame14" style="opacity:1;fill:none;stroke-width:1.5" d="M 6.5 16.5 L 16.5 16.5" stroke="#000000"/> 	</g> 	 	<g id="_3057BB1F-3E6E-4FCD-9349-50E802F0EE84userTask" transform="scale(0.7,0.7) translate(8,8)" display="inherit"> 		<path id="_3057BB1F-3E6E-4FCD-9349-50E802F0EE84frame15" oryx:anchors="top left" style="opacity:1;fill:#F4F6F7" stroke="#000000" d="M0.585,24.167h24.083v-7.833c0,0-2.333-3.917-7.083-5.167h-9.25    c-4.417,1.333-7.833,5.75-7.833,5.75L0.585,24.167z"/> 		<path id="_3057BB1F-3E6E-4FCD-9349-50E802F0EE84frame16" oryx:anchors="top left" style="opacity:1;fill:none" d="M 6 20 L 6 24" stroke="#000000"/> 		<path id="_3057BB1F-3E6E-4FCD-9349-50E802F0EE84frame17" oryx:anchors="top left" style="opacity:1;fill:none" d="M 20 20 L 20 24" stroke="#000000"/> 		<circle id="_3057BB1F-3E6E-4FCD-9349-50E802F0EE84frame18" oryx:anchors="top left" fill="black" cx="13.002" cy="5.916" r="5.417" stroke="#000000"/> 		<path id="_3057BB1F-3E6E-4FCD-9349-50E802F0EE84frame19" oryx:anchors="top left" style="opacity:1;fill:#F0EFF0;" stroke="#000000" d="M8.043,7.083c0,0,2.814-2.426,5.376-1.807s4.624-0.693,4.624-0.693    c0.25,1.688,0.042,3.75-1.458,5.584c0,0,1.083,0.75,1.083,1.5s0.125,1.875-1,3s-5.5,1.25-6.75,0S8.668,12.834,8.668,12    s0.583-1.25,1.25-1.917C8.835,9.5,7.419,7.708,8.043,7.083z"/> 	</g> 	 	<g id="_3057BB1F-3E6E-4FCD-9349-50E802F0EE84serviceTask" transform="scale(0.7,0.7) translate(8,8)" display="none"> 		<polygon oryx:anchors="top left" id="_3057BB1F-3E6E-4FCD-9349-50E802F0EE84frame20" style="opacity:1;fill:#ffffff" stroke="#000000" points="15.392,5.064 17.954,2.502 20.347,4.895 17.786,7.455     18.729,9.732 22.353,9.732 22.353,13.115 18.731,13.115 17.788,15.392 20.351,17.955 17.958,20.347 15.397,17.786 13.12,18.729     13.12,22.353 9.737,22.353 9.737,18.731 7.46,17.788 4.897,20.35 2.506,17.958 5.066,15.397 4.124,13.12 0.5,13.12 0.5,9.737     4.121,9.737 5.065,7.461 2.503,4.898 4.895,2.506 7.455,5.066 9.732,4.125 9.732,0.5 13.116,0.5 13.116,4.121 "/> 		<circle oryx:anchors="top left" id="_3057BB1F-3E6E-4FCD-9349-50E802F0EE84frame21" style="opacity:1;fill:none" stroke="#000000" cx="11.427" cy="11.426" r="3.714"/> 		<polygon oryx:anchors="top left" id="_3057BB1F-3E6E-4FCD-9349-50E802F0EE84frame22" style="opacity:1;fill:#ffffff" stroke="#000000" points="21.392,11.064 23.954,8.502 26.347,10.895 23.786,13.455     24.729,15.732 28.353,15.732 28.353,19.115 24.731,19.115 23.788,21.392 26.351,23.955 23.958,26.347 21.397,23.786 19.12,24.729     19.12,28.353 15.737,28.353 15.737,24.731 13.46,23.788 10.897,26.35 8.506,23.958 11.066,21.397 10.124,19.12 6.5,19.12     6.5,15.737 10.121,15.737 11.065,13.461 8.503,10.898 10.895,8.506 13.455,11.066 15.732,10.125 15.732,6.5 19.116,6.5     19.116,10.121 "/> 		<circle oryx:anchors="top left" id="_3057BB1F-3E6E-4FCD-9349-50E802F0EE84frame23" style="opacity:1;fill:none;" stroke="#000000" cx="17.427" cy="17.426" r="3.714"/> 	</g> 	 	<g id="_3057BB1F-3E6E-4FCD-9349-50E802F0EE84sendTask" display="none"> 		<path id="_3057BB1F-3E6E-4FCD-9349-50E802F0EE84stframe24" oryx:anchors="left top" stroke="#FFFFFF" fill="black" stroke-width="1" d="M8,11 L8,21 L24,21 L24,11 L16,17z"/> 		<path id="_3057BB1F-3E6E-4FCD-9349-50E802F0EE84stframe25" oryx:anchors="left top" stroke="#FFFFFF" fill="black" stroke-width="1" d="M7,10 L16,17 L25 10z"/> 	</g> 	 	<g id="_3057BB1F-3E6E-4FCD-9349-50E802F0EE84receiveTask" display="none"> 		<path id="_3057BB1F-3E6E-4FCD-9349-50E802F0EE84frame26" oryx:anchors="left top" stroke="#000000" fill="none" stroke-width="1" d="M8,11 L8,21 L24,21 L24,11z M8,11 L16,17 L24,11"/> 	</g> 	 	<g id="_3057BB1F-3E6E-4FCD-9349-50E802F0EE84none" display="inherit"/>  	<g id="_3057BB1F-3E6E-4FCD-9349-50E802F0EE84sequential" display="none">         <path oryx:anchors="bottom" fill="none" stroke="#000000" stroke-width="2" d="M46,76h10M46,72h10 M46,68h10" id="_3057BB1F-3E6E-4FCD-9349-50E802F0EE84__3057BB1F-3E6E-4FCD-9349-50E802F0EE84_20"/>     </g>   </g></g><g class="children" style="overflow:hidden"/><g class="edge"/></g><g class="controls"><g class="dockers"/><g class="magnets" transform="translate(375, 60)"><g pointer-events="all" display="none" transform="translate(-7, 12)"><circle cx="8" cy="8" r="4" stroke="none" fill="red" fill-opacity="0.3"/></g><g pointer-events="all" display="none" transform="translate(-7, 32)"><circle cx="8" cy="8" r="4" stroke="none" fill="red" fill-opacity="0.3"/></g><g pointer-events="all" display="none" transform="translate(-7, 52)"><circle cx="8" cy="8" r="4" stroke="none" fill="red" fill-opacity="0.3"/></g><g pointer-events="all" display="none" transform="translate(17, 71)"><circle cx="8" cy="8" r="4" stroke="none" fill="red" fill-opacity="0.3"/></g><g pointer-events="all" display="none" transform="translate(42, 71)"><circle cx="8" cy="8" r="4" stroke="none" fill="red" fill-opacity="0.3"/></g><g pointer-events="all" display="none" transform="translate(67, 71)"><circle cx="8" cy="8" r="4" stroke="none" fill="red" fill-opacity="0.3"/></g><g pointer-events="all" display="none" transform="translate(91, 12)"><circle cx="8" cy="8" r="4" stroke="none" fill="red" fill-opacity="0.3"/></g><g pointer-events="all" display="none" transform="translate(91, 32)"><circle cx="8" cy="8" r="4" stroke="none" fill="red" fill-opacity="0.3"/></g><g pointer-events="all" display="none" transform="translate(91, 52)"><circle cx="8" cy="8" r="4" stroke="none" fill="red" fill-opacity="0.3"/></g><g pointer-events="all" display="none" transform="translate(17, -7)"><circle cx="8" cy="8" r="4" stroke="none" fill="red" fill-opacity="0.3"/></g><g pointer-events="all" display="none" transform="translate(42, -7)"><circle cx="8" cy="8" r="4" stroke="none" fill="red" fill-opacity="0.3"/></g><g pointer-events="all" display="none" transform="translate(67, -7)"><circle cx="8" cy="8" r="4" stroke="none" fill="red" fill-opacity="0.3"/></g><g pointer-events="all" display="none" transform="translate(42, 32)"><circle cx="8" cy="8" r="4" stroke="none" fill="red" fill-opacity="0.3"/></g></g></g></g><g id="_E2ECB419-E160-4CBC-94B3-5E47AF9BA10F" bpmn2nodeid="_401A445D-421F-47BB-AB70-3A2F5886F0D7"><g class="stencils" transform="translate(360, 315)"><g class="me"><g pointer-events="fill" oryx:minimumSize="50 40" id="_E2ECB419-E160-4CBC-94B3-5E47AF9BA10F">   	<defs id="_E2ECB419-E160-4CBC-94B3-5E47AF9BA10F__E2ECB419-E160-4CBC-94B3-5E47AF9BA10F_17"> 		<radialGradient id="_E2ECB419-E160-4CBC-94B3-5E47AF9BA10Fbackground" cx="10%" cy="10%" r="100%" fx="10%" fy="10%"> 			<stop offset="0%" stop-color="#ffffff" stop-opacity="1" id="_E2ECB419-E160-4CBC-94B3-5E47AF9BA10F__E2ECB419-E160-4CBC-94B3-5E47AF9BA10F_18"/> 			<stop id="_E2ECB419-E160-4CBC-94B3-5E47AF9BA10Ffill_el" offset="100%" stop-color="#fafad2" stop-opacity="1"/> 		</radialGradient> 		<radialGradient id="_E2ECB419-E160-4CBC-94B3-5E47AF9BA10Fborderbackground" cx="10%" cy="10%" r="100%" fx="10%" fy="10%"> 			<stop offset="0%" stop-color="#ffffff" stop-opacity="1" id="_E2ECB419-E160-4CBC-94B3-5E47AF9BA10F__E2ECB419-E160-4CBC-94B3-5E47AF9BA10F_19"/> 			<stop id="_E2ECB419-E160-4CBC-94B3-5E47AF9BA10Ffill_border" offset="100%" stop-color="#000000" stop-opacity="1" stroke="#000000"/> 		</radialGradient> 	</defs> 	 	<rect id="_E2ECB419-E160-4CBC-94B3-5E47AF9BA10Ftext_frame" oryx:anchors="bottom top right left" x="1" y="1" width="94" height="79" rx="10" ry="10" stroke="none" stroke-width="0" fill="none"/> 	<rect id="_E2ECB419-E160-4CBC-94B3-5E47AF9BA10Fbg_frame" oryx:resize="vertical horizontal" x="0" y="0" width="100" height="80" rx="10" ry="10" stroke="#000000" stroke-width="1" fill="url(#_E2ECB419-E160-4CBC-94B3-5E47AF9BA10Fbackground) #ffffcc"/> 		<text font-size="12" id="_E2ECB419-E160-4CBC-94B3-5E47AF9BA10Ftext_name" x="50" y="40" oryx:align="middle center" oryx:fittoelem="text_frame" stroke="black" text-anchor="middle" stroke-width="0pt" letter-spacing="-0.01px" fill="#000000" transform="rotate(0 50 40)" visibility="inherit" oryx:fontSize="12"><tspan x="50" y="40" dy="-1">Determine </tspan><tspan x="50" y="40" dy="11" id="ext-gen606">Documents</tspan></text>     <g id="_E2ECB419-E160-4CBC-94B3-5E47AF9BA10FmanualTask" transform="scale(0.7,0.7) translate(8,8)" display="none">     	<path oryx:anchors="top left" id="_E2ECB419-E160-4CBC-94B3-5E47AF9BA10Fframe" style="opacity:1;fill:none;fill-opacity:1;stroke-width:1" d="M0.5,3.751l4.083-3.25c0,0,11.166,0.083,12.083,0.083s-2.417,2.917-1.5,2.917     s11.667,0,12.584,0c1.166,1.708-0.168,3.167-0.834,3.667s0.875,1.917-1,4.417c-0.75,0.25,0.75,1.875-1.333,3.333     c-1.167,0.583,0.583,1.542-1.25,2.833c-1.167,0-20.833,0.083-20.833,0.083l-2-1.333V3.751z" stroke="#000000"/> 		<path id="_E2ECB419-E160-4CBC-94B3-5E47AF9BA10Fframe2" oryx:anchors="top left" style="opacity:1;fill:none;stroke-width:2" d="M 13.5 7 L 27 7" stroke="#000000"/> 		<path id="_E2ECB419-E160-4CBC-94B3-5E47AF9BA10Fframe3" oryx:anchors="top left" style="opacity:1;fill:none;stroke-width:2" d="M 13.5 11 L 26 11" stroke="#000000"/> 		<path id="_E2ECB419-E160-4CBC-94B3-5E47AF9BA10Fframe4" oryx:anchors="top left" style="opacity:1;fill:none;stroke-width:1.5" d="M 14 14.5 L 25 14.5" stroke="#000000"/> 		<path id="_E2ECB419-E160-4CBC-94B3-5E47AF9BA10Fframe5" oryx:anchors="top left" style="opacity:1;fill:none;stroke-width:1.5" d="M 8.2 3.1 L 15 3.1" stroke="#000000"/> 	</g> 	 	<g id="_E2ECB419-E160-4CBC-94B3-5E47AF9BA10FbusinessRuleTask" transform="scale(0.7,0.7) translate(8,8)" display="inherit"> 		<rect id="_E2ECB419-E160-4CBC-94B3-5E47AF9BA10Fframe6" oryx:anchors="top left" x="0" y="0" width="22" height="4" style="opacity:1;fill:#B3B1B3;fill-opacity:1;" stroke="#000000"/> 		<rect id="_E2ECB419-E160-4CBC-94B3-5E47AF9BA10Fframe7" oryx:anchors="top left" x="0" y="4" style="opacity:1;fill:none;" width="22" height="12" stroke="#000000"/> 		<path id="_E2ECB419-E160-4CBC-94B3-5E47AF9BA10Fframe8" oryx:anchors="top left" style="opacity:1;fill:none;" d="M 0 10 L 22 10" stroke="#000000"/> 		<path id="_E2ECB419-E160-4CBC-94B3-5E47AF9BA10Fframe9" oryx:anchors="top left" style="opacity:1; fill:none;" d="M 7 4 L 7 16" stroke="#000000"/> 	</g> 	 	<g id="_E2ECB419-E160-4CBC-94B3-5E47AF9BA10FscriptTask" transform="scale(0.7,0.7) translate(8,8)" display="none"> 		<path oryx:anchors="top left" id="_E2ECB419-E160-4CBC-94B3-5E47AF9BA10Fframe10" style="opacity:1;fill:none;" stroke="#000000" d="M6.402,0.5h14.5c0,0-5.833,2.833-5.833,5.583s4.417,6,4.417,9.167    s-4.167,5.083-4.167,5.083H0.235c0,0,5-2.667,5-5s-4.583-6.75-4.583-9.25S6.402,0.5,6.402,0.5z"/> 		<path oryx:anchors="top left" id="_E2ECB419-E160-4CBC-94B3-5E47AF9BA10Fframe11" style="opacity:1;fill:none;stroke-width:1.5" d="M 3.5 4.5 L 13.5 4.5" stroke="#000000"/> 		<path oryx:anchors="top left" id="_E2ECB419-E160-4CBC-94B3-5E47AF9BA10Fframe12" style="opacity:1;fill:none;stroke-width:1.5" d="M 3.8 8.5 L 13.8 8.5" stroke="#000000"/> 		<path oryx:anchors="top left" id="_E2ECB419-E160-4CBC-94B3-5E47AF9BA10Fframe13" style="opacity:1;fill:none;stroke-width:1.5" d="M 6.3 12.5 L 16.3 12.5" stroke="#000000"/> 		<path oryx:anchors="top left" id="_E2ECB419-E160-4CBC-94B3-5E47AF9BA10Fframe14" style="opacity:1;fill:none;stroke-width:1.5" d="M 6.5 16.5 L 16.5 16.5" stroke="#000000"/> 	</g> 	 	<g id="_E2ECB419-E160-4CBC-94B3-5E47AF9BA10FuserTask" transform="scale(0.7,0.7) translate(8,8)" display="none"> 		<path id="_E2ECB419-E160-4CBC-94B3-5E47AF9BA10Fframe15" oryx:anchors="top left" style="opacity:1;fill:#F4F6F7" stroke="#000000" d="M0.585,24.167h24.083v-7.833c0,0-2.333-3.917-7.083-5.167h-9.25    c-4.417,1.333-7.833,5.75-7.833,5.75L0.585,24.167z"/> 		<path id="_E2ECB419-E160-4CBC-94B3-5E47AF9BA10Fframe16" oryx:anchors="top left" style="opacity:1;fill:none" d="M 6 20 L 6 24" stroke="#000000"/> 		<path id="_E2ECB419-E160-4CBC-94B3-5E47AF9BA10Fframe17" oryx:anchors="top left" style="opacity:1;fill:none" d="M 20 20 L 20 24" stroke="#000000"/> 		<circle id="_E2ECB419-E160-4CBC-94B3-5E47AF9BA10Fframe18" oryx:anchors="top left" fill="black" cx="13.002" cy="5.916" r="5.417" stroke="#000000"/> 		<path id="_E2ECB419-E160-4CBC-94B3-5E47AF9BA10Fframe19" oryx:anchors="top left" style="opacity:1;fill:#F0EFF0;" stroke="#000000" d="M8.043,7.083c0,0,2.814-2.426,5.376-1.807s4.624-0.693,4.624-0.693    c0.25,1.688,0.042,3.75-1.458,5.584c0,0,1.083,0.75,1.083,1.5s0.125,1.875-1,3s-5.5,1.25-6.75,0S8.668,12.834,8.668,12    s0.583-1.25,1.25-1.917C8.835,9.5,7.419,7.708,8.043,7.083z"/> 	</g> 	 	<g id="_E2ECB419-E160-4CBC-94B3-5E47AF9BA10FserviceTask" transform="scale(0.7,0.7) translate(8,8)" display="none"> 		<polygon oryx:anchors="top left" id="_E2ECB419-E160-4CBC-94B3-5E47AF9BA10Fframe20" style="opacity:1;fill:#ffffff" stroke="#000000" points="15.392,5.064 17.954,2.502 20.347,4.895 17.786,7.455     18.729,9.732 22.353,9.732 22.353,13.115 18.731,13.115 17.788,15.392 20.351,17.955 17.958,20.347 15.397,17.786 13.12,18.729     13.12,22.353 9.737,22.353 9.737,18.731 7.46,17.788 4.897,20.35 2.506,17.958 5.066,15.397 4.124,13.12 0.5,13.12 0.5,9.737     4.121,9.737 5.065,7.461 2.503,4.898 4.895,2.506 7.455,5.066 9.732,4.125 9.732,0.5 13.116,0.5 13.116,4.121 "/> 		<circle oryx:anchors="top left" id="_E2ECB419-E160-4CBC-94B3-5E47AF9BA10Fframe21" style="opacity:1;fill:none" stroke="#000000" cx="11.427" cy="11.426" r="3.714"/> 		<polygon oryx:anchors="top left" id="_E2ECB419-E160-4CBC-94B3-5E47AF9BA10Fframe22" style="opacity:1;fill:#ffffff" stroke="#000000" points="21.392,11.064 23.954,8.502 26.347,10.895 23.786,13.455     24.729,15.732 28.353,15.732 28.353,19.115 24.731,19.115 23.788,21.392 26.351,23.955 23.958,26.347 21.397,23.786 19.12,24.729     19.12,28.353 15.737,28.353 15.737,24.731 13.46,23.788 10.897,26.35 8.506,23.958 11.066,21.397 10.124,19.12 6.5,19.12     6.5,15.737 10.121,15.737 11.065,13.461 8.503,10.898 10.895,8.506 13.455,11.066 15.732,10.125 15.732,6.5 19.116,6.5     19.116,10.121 "/> 		<circle oryx:anchors="top left" id="_E2ECB419-E160-4CBC-94B3-5E47AF9BA10Fframe23" style="opacity:1;fill:none;" stroke="#000000" cx="17.427" cy="17.426" r="3.714"/> 	</g> 	 	<g id="_E2ECB419-E160-4CBC-94B3-5E47AF9BA10FsendTask" display="none"> 		<path id="_E2ECB419-E160-4CBC-94B3-5E47AF9BA10Fstframe24" oryx:anchors="left top" stroke="#FFFFFF" fill="black" stroke-width="1" d="M8,11 L8,21 L24,21 L24,11 L16,17z"/> 		<path id="_E2ECB419-E160-4CBC-94B3-5E47AF9BA10Fstframe25" oryx:anchors="left top" stroke="#FFFFFF" fill="black" stroke-width="1" d="M7,10 L16,17 L25 10z"/> 	</g> 	 	<g id="_E2ECB419-E160-4CBC-94B3-5E47AF9BA10FreceiveTask" display="none"> 		<path id="_E2ECB419-E160-4CBC-94B3-5E47AF9BA10Fframe26" oryx:anchors="left top" stroke="#000000" fill="none" stroke-width="1" d="M8,11 L8,21 L24,21 L24,11z M8,11 L16,17 L24,11"/> 	</g> 	 	<g id="_E2ECB419-E160-4CBC-94B3-5E47AF9BA10Fnone" display="inherit"/>  	<g id="_E2ECB419-E160-4CBC-94B3-5E47AF9BA10Fsequential" display="none">         <path oryx:anchors="bottom" fill="none" stroke="#000000" stroke-width="2" d="M46,76h10M46,72h10 M46,68h10" id="_E2ECB419-E160-4CBC-94B3-5E47AF9BA10F__E2ECB419-E160-4CBC-94B3-5E47AF9BA10F_20"/>     </g>   </g></g><g class="children" style="overflow:hidden"/><g class="edge"/></g><g class="controls"><g class="dockers"/><g class="magnets" transform="translate(360, 315)"><g pointer-events="all" display="none" transform="translate(-7, 12)"><circle cx="8" cy="8" r="4" stroke="none" fill="red" fill-opacity="0.3"/></g><g pointer-events="all" display="none" transform="translate(-7, 32)"><circle cx="8" cy="8" r="4" stroke="none" fill="red" fill-opacity="0.3"/></g><g pointer-events="all" display="none" transform="translate(-7, 52)"><circle cx="8" cy="8" r="4" stroke="none" fill="red" fill-opacity="0.3"/></g><g pointer-events="all" display="none" transform="translate(17, 71)"><circle cx="8" cy="8" r="4" stroke="none" fill="red" fill-opacity="0.3"/></g><g pointer-events="all" display="none" transform="translate(42, 71)"><circle cx="8" cy="8" r="4" stroke="none" fill="red" fill-opacity="0.3"/></g><g pointer-events="all" display="none" transform="translate(67, 71)"><circle cx="8" cy="8" r="4" stroke="none" fill="red" fill-opacity="0.3"/></g><g pointer-events="all" display="none" transform="translate(91, 12)"><circle cx="8" cy="8" r="4" stroke="none" fill="red" fill-opacity="0.3"/></g><g pointer-events="all" display="none" transform="translate(91, 32)"><circle cx="8" cy="8" r="4" stroke="none" fill="red" fill-opacity="0.3"/></g><g pointer-events="all" display="none" transform="translate(91, 52)"><circle cx="8" cy="8" r="4" stroke="none" fill="red" fill-opacity="0.3"/></g><g pointer-events="all" display="none" transform="translate(17, -7)"><circle cx="8" cy="8" r="4" stroke="none" fill="red" fill-opacity="0.3"/></g><g pointer-events="all" display="none" transform="translate(42, -7)"><circle cx="8" cy="8" r="4" stroke="none" fill="red" fill-opacity="0.3"/></g><g pointer-events="all" display="none" transform="translate(67, -7)"><circle cx="8" cy="8" r="4" stroke="none" fill="red" fill-opacity="0.3"/></g><g pointer-events="all" display="none" transform="translate(42, 32)"><circle cx="8" cy="8" r="4" stroke="none" fill="red" fill-opacity="0.3"/></g></g></g></g><g id="_E32D6DB0-A6C4-4838-8B2B-C1307096CF12" bpmn2nodeid="_BC5B7777-D486-4928-B939-32AD601638E4"><g class="stencils" transform="translate(637, 277)"><g class="me"><g pointer-events="fill" oryx:minimumSize="120 100" oryx:maximumSize="" id="_E32D6DB0-A6C4-4838-8B2B-C1307096CF12">   	<defs id="_E32D6DB0-A6C4-4838-8B2B-C1307096CF12__E32D6DB0-A6C4-4838-8B2B-C1307096CF12_17"> 		<radialGradient id="_E32D6DB0-A6C4-4838-8B2B-C1307096CF12background" cx="10%" cy="10%" r="100%" fx="10%" fy="10%"> 			<stop offset="0%" stop-color="#ffffff" stop-opacity="1" id="_E32D6DB0-A6C4-4838-8B2B-C1307096CF12__E32D6DB0-A6C4-4838-8B2B-C1307096CF12_18"/> 			<stop id="_E32D6DB0-A6C4-4838-8B2B-C1307096CF12fill_el" offset="100%" stop-color="#fafad2" stop-opacity="1"/> 		</radialGradient> 		<radialGradient id="_E32D6DB0-A6C4-4838-8B2B-C1307096CF12borderbackground" cx="10%" cy="10%" r="100%" fx="10%" fy="10%"> 			<stop offset="0%" stop-color="#ffffff" stop-opacity="1" id="_E32D6DB0-A6C4-4838-8B2B-C1307096CF12__E32D6DB0-A6C4-4838-8B2B-C1307096CF12_19"/> 			<stop id="_E32D6DB0-A6C4-4838-8B2B-C1307096CF12fill_border" offset="100%" stop-color="#000000" stop-opacity="1" stroke="#000000"/> 		</radialGradient> 	</defs> 	     <rect id="_E32D6DB0-A6C4-4838-8B2B-C1307096CF12text_frame" oryx:anchors="bottom top right left" x="0" y="0" width="190" height="160" rx="10" ry="10" stroke="none" stroke-width="0" fill="none"/> 	<rect id="_E32D6DB0-A6C4-4838-8B2B-C1307096CF12bg_frame" oryx:anchors="bottom top right left" x="0" y="0" width="200" height="160" rx="10" ry="10" stroke="#000000" stroke-width="1" fill="url(#_E32D6DB0-A6C4-4838-8B2B-C1307096CF12background) white"/>     	<text font-size="12" id="_E32D6DB0-A6C4-4838-8B2B-C1307096CF12text_name" x="8" y="10" oryx:align="top left" oryx:fittoelem="text_frame" oryx:anchors="left top" stroke="black" stroke-width="0pt" letter-spacing="-0.01px" fill="#000000" text-anchor="start" transform="rotate(0 8 10)" visibility="inherit" oryx:fontSize="12"><tspan x="8" y="10" dy="12">Upload Documents</tspan></text>     	 	<g id="_E32D6DB0-A6C4-4838-8B2B-C1307096CF12none"/> 	<g id="_E32D6DB0-A6C4-4838-8B2B-C1307096CF12parallel"> 		<path id="_E32D6DB0-A6C4-4838-8B2B-C1307096CF12frame2" oryx:anchors="bottom" fill="none" stroke="#000000" d="M97 145 v10 M101 145 v10 M105 145 v10" stroke-width="2"/> 	</g> 	undefined 	undefined 	 	 	undefined 	undefined 	 	 	undefined 	undefined   </g></g><g class="children" style="overflow:hidden"/><g class="edge"/></g><g class="controls"><g class="dockers"/><g class="magnets" transform="translate(637, 277)"><g pointer-events="all" display="none" transform="translate(-7, 42)"><circle cx="8" cy="8" r="4" stroke="none" fill="red" fill-opacity="0.3"/></g><g pointer-events="all" display="none" transform="translate(-7, 72)"><circle cx="8" cy="8" r="4" stroke="none" fill="red" fill-opacity="0.3"/></g><g pointer-events="all" display="none" transform="translate(-7, 102)"><circle cx="8" cy="8" r="4" stroke="none" fill="red" fill-opacity="0.3"/></g><g pointer-events="all" display="none" transform="translate(62, 151)"><circle cx="8" cy="8" r="4" stroke="none" fill="red" fill-opacity="0.3"/></g><g pointer-events="all" display="none" transform="translate(92, 151)"><circle cx="8" cy="8" r="4" stroke="none" fill="red" fill-opacity="0.3"/></g><g pointer-events="all" display="none" transform="translate(122, 151)"><circle cx="8" cy="8" r="4" stroke="none" fill="red" fill-opacity="0.3"/></g><g pointer-events="all" display="none" transform="translate(191, 42)"><circle cx="8" cy="8" r="4" stroke="none" fill="red" fill-opacity="0.3"/></g><g pointer-events="all" display="none" transform="translate(191, 72)"><circle cx="8" cy="8" r="4" stroke="none" fill="red" fill-opacity="0.3"/></g><g pointer-events="all" display="none" transform="translate(191, 102)"><circle cx="8" cy="8" r="4" stroke="none" fill="red" fill-opacity="0.3"/></g><g pointer-events="all" display="none" transform="translate(62, -7)"><circle cx="8" cy="8" r="4" stroke="none" fill="red" fill-opacity="0.3"/></g><g pointer-events="all" display="none" transform="translate(92, -7)"><circle cx="8" cy="8" r="4" stroke="none" fill="red" fill-opacity="0.3"/></g><g pointer-events="all" display="none" transform="translate(122, -7)"><circle cx="8" cy="8" r="4" stroke="none" fill="red" fill-opacity="0.3"/></g><g pointer-events="all" display="none" transform="translate(92, 72)"><circle cx="8" cy="8" r="4" stroke="none" fill="red" fill-opacity="0.3"/></g></g></g></g><g id="_9B01B73E-D22A-44A8-A53C-E987707AB092" bpmn2nodeid="_516FF206-3B40-4633-8E2F-4F31169C0FAE"><g class="stencils" transform="translate(960, 178)"><g class="me"><g id="_9B01B73E-D22A-44A8-A53C-E987707AB092">      <defs id="_9B01B73E-D22A-44A8-A53C-E987707AB092__9B01B73E-D22A-44A8-A53C-E987707AB092_4"> 		<radialGradient id="_9B01B73E-D22A-44A8-A53C-E987707AB092background" cx="10%" cy="10%" r="100%" fx="10%" fy="10%"> 			<stop offset="0%" stop-color="#ffffff" stop-opacity="1" id="_9B01B73E-D22A-44A8-A53C-E987707AB092__9B01B73E-D22A-44A8-A53C-E987707AB092_5"/> 			<stop id="_9B01B73E-D22A-44A8-A53C-E987707AB092fill_el" offset="100%" stop-color="#f0e68c" stop-opacity="1"/> 		</radialGradient> 	</defs> 	     <path d=" M0 20.5  L20.5 0  L40 20.5  L20.5 40  z" id="_9B01B73E-D22A-44A8-A53C-E987707AB092bg_frame" fill="url(#_9B01B73E-D22A-44A8-A53C-E987707AB092background) white" style="stroke-width:1" stroke="#a67f00"/>     <path id="_9B01B73E-D22A-44A8-A53C-E987707AB092frame" d=" M11.25 20.5  L30.25 20.5  M20.5 11.25  L20.5 30.25 " style="fill:none;stroke-width:3" stroke="#a67f00"/>      	<text id="_9B01B73E-D22A-44A8-A53C-E987707AB092text_name" x="30.5" y="30.5" oryx:align="left top" stroke-width="0pt" letter-spacing="-0.01px" fill="#000000" text-anchor="start" transform="rotate(0 30.5 30.5)" visibility="inherit" oryx:fontSize="12"/> 	   </g></g><g class="children" style="overflow:hidden"/><g class="edge"/></g><g class="controls"><g class="dockers"/><g class="magnets" transform="translate(960, 178)"><g pointer-events="all" display="none" transform="translate(12.5, 12.5)"><circle cx="8" cy="8" r="4" stroke="none" fill="red" fill-opacity="0.3"/></g></g></g></g><g id="_89C49F3D-A8F0-4922-9895-EFADB7966FA1" bpmn2nodeid="_8E63C187-5C4A-4224-9D5E-36AACF77DC0A"><g class="stencils" transform="translate(1102, 184)"><g class="me"><g pointer-events="fill" id="_89C49F3D-A8F0-4922-9895-EFADB7966FA1">      <defs id="_89C49F3D-A8F0-4922-9895-EFADB7966FA1__89C49F3D-A8F0-4922-9895-EFADB7966FA1_5"> 		<radialGradient id="_89C49F3D-A8F0-4922-9895-EFADB7966FA1background" cx="10%" cy="10%" r="100%" fx="10%" fy="10%"> 			<stop offset="0%" stop-color="#ffffff" stop-opacity="1" id="_89C49F3D-A8F0-4922-9895-EFADB7966FA1__89C49F3D-A8F0-4922-9895-EFADB7966FA1_6"/> 			<stop id="_89C49F3D-A8F0-4922-9895-EFADB7966FA1fill_el" offset="100%" stop-color="#ff6347" stop-opacity="1"/> 		</radialGradient> 	</defs> 	     <circle id="_89C49F3D-A8F0-4922-9895-EFADB7966FA1bg_frame" cx="14" cy="14" r="14" stroke="#000000" fill="url(#_89C49F3D-A8F0-4922-9895-EFADB7966FA1background) white" stroke-width="3"/> 	<text font-size="11" id="_89C49F3D-A8F0-4922-9895-EFADB7966FA1text_name" x="14" y="30" oryx:align="top center" stroke="black" stroke-width="0pt" letter-spacing="-0.01px" fill="#000000" text-anchor="middle" transform="rotate(0 14 30)" visibility="inherit" oryx:fontSize="11"/>   </g></g><g class="children" style="overflow:hidden"/><g class="edge"/></g><g class="controls"><g class="dockers"/><g class="magnets" transform="translate(1102, 184)"><g pointer-events="all" display="none" transform="translate(6, 6)"><circle cx="8" cy="8" r="4" stroke="none" fill="red" fill-opacity="0.3"/></g></g></g></g></g><g class="edge"><g id="_B1CF1684-3AEC-4135-BF56-63BF2BBF8D6A" bpmn2nodeid="_4BD14346-0A1B-41AC-89BE-278A9193D512"><g class="stencils"><g class="me"><g pointer-events="painted" bpmn2nodeid="_C2B6AFD2-3AB7-4818-9603-1229E9F0C813"><path id="_B1CF1684-3AEC-4135-BF56-63BF2BBF8D6A_1" d="M150.609375 180L225.09375 180 " stroke="#000000" fill="none" stroke-width="2" stroke-linecap="round" stroke-linejoin="round" marker-start="url(#_B1CF1684-3AEC-4135-BF56-63BF2BBF8D6Astart)" marker-end="url(#_B1CF1684-3AEC-4135-BF56-63BF2BBF8D6Aend)"/></g><text id="_B1CF1684-3AEC-4135-BF56-63BF2BBF8D6Atext_name" font-size="12" x="164.609375" y="166" oryx:edgePosition="startTop" stroke-width="0pt" letter-spacing="-0.01px" fill="#000000" text-anchor="start" transform="rotate(360 150.609375 180)" visibility="inherit" oryx:fontSize="12"/></g><g class="children" style="overflow:hidden"/><g class="edge"/></g><g class="controls"><g class="dockers"/><g class="magnets"/></g></g><g id="_C0A42E52-ACA1-4FAF-9DDD-74DDC426BA58" bpmn2nodeid="_6825F177-97DE-45E2-BD26-5BFF62D954ED"><g class="stencils"><g class="me"><g pointer-events="painted" bpmn2nodeid="_12D3F181-3A9C-46B3-A81E-11B3A71CC5F3"><path id="_C0A42E52-ACA1-4FAF-9DDD-74DDC426BA58_1" d="M245 160.25L245 100 L374.78125 100 " stroke="#000000" fill="none" stroke-width="2" stroke-linecap="round" stroke-linejoin="round" marker-start="url(#_C0A42E52-ACA1-4FAF-9DDD-74DDC426BA58start)" marker-end="url(#_C0A42E52-ACA1-4FAF-9DDD-74DDC426BA58end)"/></g><text id="_C0A42E52-ACA1-4FAF-9DDD-74DDC426BA58text_name" font-size="12" x="259" y="146.25" oryx:edgePosition="startTop" stroke-width="0pt" letter-spacing="-0.01px" fill="#000000" text-anchor="start" transform="rotate(270 245 160.25)" visibility="inherit" oryx:fontSize="12"/></g><g class="children" style="overflow:hidden"/><g class="edge"/></g><g class="controls"><g class="dockers"/><g class="magnets"/></g></g><g id="_4E24DBD9-83F2-43DB-A2F1-E6AD7FAF3E89" bpmn2nodeid="_28C85D2C-73F7-4728-9807-8353754F1C6B"><g class="stencils"><g class="me"><g pointer-events="painted" bpmn2nodeid="_40FFCAE4-C7FC-4FBB-A86F-63167D4BC283"><path id="_4E24DBD9-83F2-43DB-A2F1-E6AD7FAF3E89_1" d="M245 200.140625L245 355 L359.37109375 355 " stroke="#000000" fill="none" stroke-width="2" stroke-linecap="round" stroke-linejoin="round" marker-start="url(#_4E24DBD9-83F2-43DB-A2F1-E6AD7FAF3E89start)" marker-end="url(#_4E24DBD9-83F2-43DB-A2F1-E6AD7FAF3E89end)"/></g><text id="_4E24DBD9-83F2-43DB-A2F1-E6AD7FAF3E89text_name" font-size="12" x="231" y="186.140625" oryx:edgePosition="startTop" stroke-width="0pt" letter-spacing="-0.01px" fill="#000000" text-anchor="end" transform="rotate(-90 245 200.140625)" visibility="inherit" oryx:fontSize="12"/></g><g class="children" style="overflow:hidden"/><g class="edge"/></g><g class="controls"><g class="dockers"/><g class="magnets"/></g></g><g id="_9E2B9AF7-B81C-4DD1-9546-C6B0E0351910" bpmn2nodeid="_CD9C37AE-8C55-445D-932C-11B7AAAA5B36"><g class="stencils"><g class="me"><g pointer-events="painted" bpmn2nodeid="_C7333726-FB42-4304-8600-B8993718585D"><path id="_9E2B9AF7-B81C-4DD1-9546-C6B0E0351910_1" d="M460.8163875465249 355.3108035935567L636.3672062034751 356.3845089064433 " stroke="#000000" fill="none" stroke-width="2" stroke-linecap="round" stroke-linejoin="round" marker-start="url(#_9E2B9AF7-B81C-4DD1-9546-C6B0E0351910start)" marker-end="url(#_9E2B9AF7-B81C-4DD1-9546-C6B0E0351910end)"/></g><text id="_9E2B9AF7-B81C-4DD1-9546-C6B0E0351910text_name" font-size="12" x="474.8163875465249" y="341.3108035935567" oryx:edgePosition="startTop" stroke-width="0pt" letter-spacing="-0.01px" fill="#000000" text-anchor="start" transform="rotate(0.3504285326541208 460.8163875465249 355.3108035935567)" visibility="inherit" oryx:fontSize="12"/></g><g class="children" style="overflow:hidden"/><g class="edge"/></g><g class="controls"><g class="dockers"/><g class="magnets"/></g></g><g id="_F1EE789A-3229-428A-828D-23A62A88C9CD" bpmn2nodeid="_D32967E3-CC77-430F-865C-38F345D19331"><g class="stencils"><g class="me"><g pointer-events="painted" bpmn2nodeid="_C5DC825D-3B03-4B3A-9574-78F4CAE8346C"><path id="_F1EE789A-3229-428A-828D-23A62A88C9CD_1" d="M475.86328125 100L980 100 L980 177.859375 " stroke="#000000" fill="none" stroke-width="2" stroke-linecap="round" stroke-linejoin="round" marker-start="url(#_F1EE789A-3229-428A-828D-23A62A88C9CDstart)" marker-end="url(#_F1EE789A-3229-428A-828D-23A62A88C9CDend)"/></g><text id="_F1EE789A-3229-428A-828D-23A62A88C9CDtext_name" font-size="12" x="489.86328125" y="86" oryx:edgePosition="startTop" stroke-width="0pt" letter-spacing="-0.01px" fill="#000000" text-anchor="start" transform="rotate(360 475.86328125 100)" visibility="inherit" oryx:fontSize="12"/></g><g class="children" style="overflow:hidden"/><g class="edge"/></g><g class="controls"><g class="dockers"/><g class="magnets"/></g></g><g id="_D555DCC9-904F-43CF-95B5-8BF49D6F7065" bpmn2nodeid="_3A94C821-6C30-4FE0-BBFE-02F07FFCD613"><g class="stencils"><g class="me"><g pointer-events="painted" bpmn2nodeid="_73EECB32-28B3-421B-B898-B98B108DBF92"><path id="_D555DCC9-904F-43CF-95B5-8BF49D6F7065_1" d="M837.66796875 357L980 357 L980 217.6328125 " stroke="#000000" fill="none" stroke-width="2" stroke-linecap="round" stroke-linejoin="round" marker-start="url(#_D555DCC9-904F-43CF-95B5-8BF49D6F7065start)" marker-end="url(#_D555DCC9-904F-43CF-95B5-8BF49D6F7065end)"/></g><text id="_D555DCC9-904F-43CF-95B5-8BF49D6F7065text_name" font-size="12" x="851.66796875" y="343" oryx:edgePosition="startTop" stroke-width="0pt" letter-spacing="-0.01px" fill="#000000" text-anchor="start" transform="rotate(360 837.66796875 357)" visibility="inherit" oryx:fontSize="12"/></g><g class="children" style="overflow:hidden"/><g class="edge"/></g><g class="controls"><g class="dockers"/><g class="magnets"/></g></g><g id="_EFF477F1-4567-4A66-A144-EE46E2522B53" bpmn2nodeid="_FCED7F5F-5922-4EA3-A95A-48865592C21C"><g class="stencils"><g class="me"><g pointer-events="painted" bpmn2nodeid="_0B2F2EC4-AE2D-4F76-B7D8-669FFEFF70ED"><path id="_EFF477F1-4567-4A66-A144-EE46E2522B53_1" d="M1000.125 198L1101.1875 198 " stroke="#000000" fill="none" stroke-width="2" stroke-linecap="round" stroke-linejoin="round" marker-start="url(#_EFF477F1-4567-4A66-A144-EE46E2522B53start)" marker-end="url(#_EFF477F1-4567-4A66-A144-EE46E2522B53end)"/></g><text id="_EFF477F1-4567-4A66-A144-EE46E2522B53text_name" font-size="12" x="1014.125" y="184" oryx:edgePosition="startTop" stroke-width="0pt" letter-spacing="-0.01px" fill="#000000" text-anchor="start" transform="rotate(360 1000.125 198)" visibility="inherit" oryx:fontSize="12"/></g><g class="children" style="overflow:hidden"/><g class="edge"/></g><g class="controls"><g class="dockers"/><g class="magnets"/></g></g></g><text id="_1C60EF8A-3329-4130-AE90-257E8E0E25DC" style="stroke-width:1;fill:rgb(177,194,214);font-family:arial;font-weight:bold" font-size="12" onclick="ORYX.Plugins.CanvasTitle.openTextualAnalysis()" onmouseover="ORYX.Plugins.CanvasTitle.addToolTip('_1C60EF8A-3329-4130-AE90-257E8E0E25DC')" transform="translate(10, 20)">EnrichmentProcess v.1.0 (src.EnrichmentProcess)</text></g></g></svg>