<svg xmlns="http://www.w3.org/2000/svg" xmlns:oryx="http://oryx-editor.org" id="_60E00047-9275-40EF-B236-75E2E762C0DD" width="1170.5" height="478" xmlns:xlink="http://www.w3.org/1999/xlink" xmlns:svg="http://www.w3.org/2000/svg"><defs><marker id="_5683468E-683D-41FB-9CE6-263092401506start" refX="1" refY="5" markerUnits="userSpaceOnUse" markerWidth="17" markerHeight="11" orient="auto" fill="#000000" stroke="#000000"> 	  		<path id="_5683468E-683D-41FB-9CE6-263092401506conditional" d="M 0 5 L 8 0 L 16 5 L 8 10 L 0 5" fill="white" stroke="#000000" stroke-width="1" display="none"/> 			<path id="_5683468E-683D-41FB-9CE6-263092401506default" d="M 5 0 L 11 10" fill="white" stroke="#000000" stroke-width="1" display="none"/> 	  	</marker><marker id="_5683468E-683D-41FB-9CE6-263092401506end" refX="15" refY="6" markerUnits="userSpaceOnUse" markerWidth="15" markerHeight="12" orient="auto" fill="#000000" stroke="#000000"> 	  		<path id="_5683468E-683D-41FB-9CE6-263092401506frame2" d="M 0 1 L 15 6 L 0 11z" fill="#000000" stroke="#000000" stroke-linejoin="round" stroke-width="2"/> 	  	</marker><marker id="_87640D16-E472-47B2-8C0F-0130F415BDC9start" refX="1" refY="5" markerUnits="userSpaceOnUse" markerWidth="17" markerHeight="11" orient="auto" fill="#000000" stroke="#000000"> 	  		<path id="_87640D16-E472-47B2-8C0F-0130F415BDC9conditional" d="M 0 5 L 8 0 L 16 5 L 8 10 L 0 5" fill="white" stroke="#000000" stroke-width="1" display="none"/> 			<path id="_87640D16-E472-47B2-8C0F-0130F415BDC9default" d="M 5 0 L 11 10" fill="white" stroke="#000000" stroke-width="1" display="none"/> 	  	</marker><marker id="_87640D16-E472-47B2-8C0F-0130F415BDC9end" refX="15" refY="6" markerUnits="userSpaceOnUse" markerWidth="15" markerHeight="12" orient="auto" fill="#000000" stroke="#000000"> 	  		<path id="_87640D16-E472-47B2-8C0F-0130F415BDC9frame2" d="M 0 1 L 15 6 L 0 11z" fill="#000000" stroke="#000000" stroke-linejoin="round" stroke-width="2"/> 	  	</marker><marker id="_1E26BFF7-F2E9-4180-AEB0-831526844C59start" refX="1" refY="5" markerUnits="userSpaceOnUse" markerWidth="17" markerHeight="11" orient="auto" fill="#000000" stroke="#000000"> 	  		<path id="_1E26BFF7-F2E9-4180-AEB0-831526844C59conditional" d="M 0 5 L 8 0 L 16 5 L 8 10 L 0 5" fill="white" stroke="#000000" stroke-width="1" display="none"/> 			<path id="_1E26BFF7-F2E9-4180-AEB0-831526844C59default" d="M 5 0 L 11 10" fill="white" stroke="#000000" stroke-width="1" display="none"/> 	  	</marker><marker id="_1E26BFF7-F2E9-4180-AEB0-831526844C59end" refX="15" refY="6" markerUnits="userSpaceOnUse" markerWidth="15" markerHeight="12" orient="auto" fill="#000000" stroke="#000000"> 	  		<path id="_1E26BFF7-F2E9-4180-AEB0-831526844C59frame2" d="M 0 1 L 15 6 L 0 11z" fill="#000000" stroke="#000000" stroke-linejoin="round" stroke-width="2"/> 	  	</marker><marker id="_8358D4D2-C3D0-4429-8F67-736B154FAF4Fstart" refX="1" refY="5" markerUnits="userSpaceOnUse" markerWidth="17" markerHeight="11" orient="auto" fill="#000000" stroke="#000000"> 	  		<path id="_8358D4D2-C3D0-4429-8F67-736B154FAF4Fconditional" d="M 0 5 L 8 0 L 16 5 L 8 10 L 0 5" fill="white" stroke="#000000" stroke-width="1" display="none"/> 			<path id="_8358D4D2-C3D0-4429-8F67-736B154FAF4Fdefault" d="M 5 0 L 11 10" fill="white" stroke="#000000" stroke-width="1" display="none"/> 	  	</marker><marker id="_8358D4D2-C3D0-4429-8F67-736B154FAF4Fend" refX="15" refY="6" markerUnits="userSpaceOnUse" markerWidth="15" markerHeight="12" orient="auto" fill="#000000" stroke="#000000"> 	  		<path id="_8358D4D2-C3D0-4429-8F67-736B154FAF4Fframe2" d="M 0 1 L 15 6 L 0 11z" fill="#000000" stroke="#000000" stroke-linejoin="round" stroke-width="2"/> 	  	</marker><marker id="_8933A7CF-FABB-4173-BFB9-CE1BE3856A8Fstart" refX="1" refY="5" markerUnits="userSpaceOnUse" markerWidth="17" markerHeight="11" orient="auto" fill="#000000" stroke="#000000"> 	  		<path id="_8933A7CF-FABB-4173-BFB9-CE1BE3856A8Fconditional" d="M 0 5 L 8 0 L 16 5 L 8 10 L 0 5" fill="white" stroke="#000000" stroke-width="1" display="none"/> 			<path id="_8933A7CF-FABB-4173-BFB9-CE1BE3856A8Fdefault" d="M 5 0 L 11 10" fill="white" stroke="#000000" stroke-width="1" display="none"/> 	  	</marker><marker id="_8933A7CF-FABB-4173-BFB9-CE1BE3856A8Fend" refX="15" refY="6" markerUnits="userSpaceOnUse" markerWidth="15" markerHeight="12" orient="auto" fill="#000000" stroke="#000000"> 	  		<path id="_8933A7CF-FABB-4173-BFB9-CE1BE3856A8Fframe2" d="M 0 1 L 15 6 L 0 11z" fill="#000000" stroke="#000000" stroke-linejoin="round" stroke-width="2"/> 	  	</marker><marker id="_54B8D2A6-3D8B-44A5-8CF7-31E5D655B60Dstart" refX="1" refY="5" markerUnits="userSpaceOnUse" markerWidth="17" markerHeight="11" orient="auto" fill="#000000" stroke="#000000"> 	  		<path id="_54B8D2A6-3D8B-44A5-8CF7-31E5D655B60Dconditional" d="M 0 5 L 8 0 L 16 5 L 8 10 L 0 5" fill="white" stroke="#000000" stroke-width="1" display="none"/> 			<path id="_54B8D2A6-3D8B-44A5-8CF7-31E5D655B60Ddefault" d="M 5 0 L 11 10" fill="white" stroke="#000000" stroke-width="1" display="none"/> 	  	</marker><marker id="_54B8D2A6-3D8B-44A5-8CF7-31E5D655B60Dend" refX="15" refY="6" markerUnits="userSpaceOnUse" markerWidth="15" markerHeight="12" orient="auto" fill="#000000" stroke="#000000"> 	  		<path id="_54B8D2A6-3D8B-44A5-8CF7-31E5D655B60Dframe2" d="M 0 1 L 15 6 L 0 11z" fill="#000000" stroke="#000000" stroke-linejoin="round" stroke-width="2"/> 	  	</marker><marker id="_D83F782A-63B2-42AA-83A3-EDFFFC559E4Fstart" refX="1" refY="5" markerUnits="userSpaceOnUse" markerWidth="17" markerHeight="11" orient="auto" fill="#000000" stroke="#000000"> 	  		<path id="_D83F782A-63B2-42AA-83A3-EDFFFC559E4Fconditional" d="M 0 5 L 8 0 L 16 5 L 8 10 L 0 5" fill="white" stroke="#000000" stroke-width="1" display="none"/> 			<path id="_D83F782A-63B2-42AA-83A3-EDFFFC559E4Fdefault" d="M 5 0 L 11 10" fill="white" stroke="#000000" stroke-width="1" display="none"/> 	  	</marker><marker id="_D83F782A-63B2-42AA-83A3-EDFFFC559E4Fend" refX="15" refY="6" markerUnits="userSpaceOnUse" markerWidth="15" markerHeight="12" orient="auto" fill="#000000" stroke="#000000"> 	  		<path id="_D83F782A-63B2-42AA-83A3-EDFFFC559E4Fframe2" d="M 0 1 L 15 6 L 0 11z" fill="#000000" stroke="#000000" stroke-linejoin="round" stroke-width="2"/> 	  	</marker></defs><g stroke="none" font-family="Verdana, sans-serif" font-size-adjust="none" font-style="normal" font-variant="normal" font-weight="normal" line-heigth="normal" font-size="12"><g class="stencils" transform="translate(15.5, 16)"><g class="me"/><g class="children"><g id="_3DC9A1C5-A7FD-42A1-BFD3-A9F3EF4A2D31" bpmn2nodeid="_F7D3CCEC-4B9E-4973-AB71-907AD1A1FBDC"><g class="stencils" transform="translate(120, 165)"><g class="me"><g pointer-events="fill" id="_3DC9A1C5-A7FD-42A1-BFD3-A9F3EF4A2D31">        <defs id="_3DC9A1C5-A7FD-42A1-BFD3-A9F3EF4A2D31__3DC9A1C5-A7FD-42A1-BFD3-A9F3EF4A2D31_5"> 		<radialGradient id="_3DC9A1C5-A7FD-42A1-BFD3-A9F3EF4A2D31background" cx="10%" cy="10%" r="100%" fx="10%" fy="10%"> 			<stop offset="0%" stop-color="#ffffff" stop-opacity="1" id="_3DC9A1C5-A7FD-42A1-BFD3-A9F3EF4A2D31__3DC9A1C5-A7FD-42A1-BFD3-A9F3EF4A2D31_6"/> 			<stop id="_3DC9A1C5-A7FD-42A1-BFD3-A9F3EF4A2D31fill_el" offset="100%" stop-color="#9acd32" stop-opacity="1"/> 		</radialGradient> 	</defs> 	     <circle id="_3DC9A1C5-A7FD-42A1-BFD3-A9F3EF4A2D31bg_frame" cx="15" cy="15" r="15" stroke="#000000" fill="url(#_3DC9A1C5-A7FD-42A1-BFD3-A9F3EF4A2D31background) white" stroke-width="1" style="stroke-dasharray: 5.5, 3"/>      <circle id="_3DC9A1C5-A7FD-42A1-BFD3-A9F3EF4A2D31frame" cx="15" cy="15" r="15" stroke="#000000" fill="none" stroke-width="1" display="inherit"/>  	<text font-size="11" id="_3DC9A1C5-A7FD-42A1-BFD3-A9F3EF4A2D31text_name" x="15" y="32" oryx:align="top center" stroke="black" stroke-width="0pt" letter-spacing="-0.01px" fill="#000000" text-anchor="middle" transform="rotate(0 15 32)" visibility="inherit" oryx:fontSize="11"/>   </g></g><g class="children" style="overflow:hidden"/><g class="edge"/></g><g class="controls"><g class="dockers"/><g class="magnets" transform="translate(120, 165)"><g pointer-events="all" display="none" transform="translate(7, 7)"><circle cx="8" cy="8" r="4" stroke="none" fill="red" fill-opacity="0.3"/></g></g></g></g><g id="_63DB9F86-F472-48C9-B799-C79ED20A4173" bpmn2nodeid="_0A1D9C75-7ED4-4849-B1F5-2AC70F3AEE8F"><g class="stencils" transform="translate(225, 160)"><g class="me"><g id="_63DB9F86-F472-48C9-B799-C79ED20A4173">      <defs id="_63DB9F86-F472-48C9-B799-C79ED20A4173__63DB9F86-F472-48C9-B799-C79ED20A4173_4"> 		<radialGradient id="_63DB9F86-F472-48C9-B799-C79ED20A4173background" cx="10%" cy="10%" r="100%" fx="10%" fy="10%"> 			<stop offset="0%" stop-color="#ffffff" stop-opacity="1" id="_63DB9F86-F472-48C9-B799-C79ED20A4173__63DB9F86-F472-48C9-B799-C79ED20A4173_5"/> 			<stop id="_63DB9F86-F472-48C9-B799-C79ED20A4173fill_el" offset="100%" stop-color="#f0e68c" stop-opacity="1"/> 		</radialGradient> 	</defs> 	     <path d=" M0 20.5  L20.5 0  L40 20.5  L20.5 40  z" id="_63DB9F86-F472-48C9-B799-C79ED20A4173bg_frame" fill="url(#_63DB9F86-F472-48C9-B799-C79ED20A4173background) white" style="stroke-width:1" stroke="#a67f00"/>     <path id="_63DB9F86-F472-48C9-B799-C79ED20A4173frame" d=" M11.25 20.5  L30.25 20.5  M20.5 11.25  L20.5 30.25 " style="fill:none;stroke-width:3" stroke="#a67f00"/>      	<text id="_63DB9F86-F472-48C9-B799-C79ED20A4173text_name" x="30.5" y="30.5" oryx:align="left top" stroke-width="0pt" letter-spacing="-0.01px" fill="#000000" text-anchor="start" transform="rotate(0 30.5 30.5)" visibility="inherit" oryx:fontSize="12"/> 	   </g></g><g class="children" style="overflow:hidden"/><g class="edge"/></g><g class="controls"><g class="dockers"/><g class="magnets" transform="translate(225, 160)"><g pointer-events="all" display="none" transform="translate(12.5, 12.5)"><circle cx="8" cy="8" r="4" stroke="none" fill="red" fill-opacity="0.3"/></g></g></g></g><g id="_5679A467-BD33-4308-A25C-6C9FC21AF2B6" bpmn2nodeid="_F28F20D2-3F5B-47E3-8C86-05F89ACB4974"><g class="stencils" transform="translate(375, 60)"><g class="me"><g pointer-events="fill" oryx:minimumSize="50 40" id="_5679A467-BD33-4308-A25C-6C9FC21AF2B6">   	<defs id="_5679A467-BD33-4308-A25C-6C9FC21AF2B6__5679A467-BD33-4308-A25C-6C9FC21AF2B6_17"> 		<radialGradient id="_5679A467-BD33-4308-A25C-6C9FC21AF2B6background" cx="10%" cy="10%" r="100%" fx="10%" fy="10%"> 			<stop offset="0%" stop-color="#ffffff" stop-opacity="1" id="_5679A467-BD33-4308-A25C-6C9FC21AF2B6__5679A467-BD33-4308-A25C-6C9FC21AF2B6_18"/> 			<stop id="_5679A467-BD33-4308-A25C-6C9FC21AF2B6fill_el" offset="100%" stop-color="#fafad2" stop-opacity="1"/> 		</radialGradient> 		<radialGradient id="_5679A467-BD33-4308-A25C-6C9FC21AF2B6borderbackground" cx="10%" cy="10%" r="100%" fx="10%" fy="10%"> 			<stop offset="0%" stop-color="#ffffff" stop-opacity="1" id="_5679A467-BD33-4308-A25C-6C9FC21AF2B6__5679A467-BD33-4308-A25C-6C9FC21AF2B6_19"/> 			<stop id="_5679A467-BD33-4308-A25C-6C9FC21AF2B6fill_border" offset="100%" stop-color="#000000" stop-opacity="1" stroke="#000000"/> 		</radialGradient> 	</defs> 	 	<rect id="_5679A467-BD33-4308-A25C-6C9FC21AF2B6text_frame" oryx:anchors="bottom top right left" x="1" y="1" width="94" height="79" rx="10" ry="10" stroke="none" stroke-width="0" fill="none"/> 	<rect id="_5679A467-BD33-4308-A25C-6C9FC21AF2B6bg_frame" oryx:resize="vertical horizontal" x="0" y="0" width="100" height="80" rx="10" ry="10" stroke="#000000" stroke-width="1" fill="url(#_5679A467-BD33-4308-A25C-6C9FC21AF2B6background) #ffffcc"/> 		<text font-size="12" id="_5679A467-BD33-4308-A25C-6C9FC21AF2B6text_name" x="50" y="40" oryx:align="middle center" oryx:fittoelem="text_frame" stroke="black" text-anchor="middle" stroke-width="0pt" letter-spacing="-0.01px" fill="#000000" transform="rotate(0 50 40)" visibility="inherit" oryx:fontSize="12"><tspan x="50" y="40" dy="-1" id="ext-gen641">Add Client </tspan><tspan x="50" y="40" dy="11" id="ext-gen811">Details</tspan></text>     <g id="_5679A467-BD33-4308-A25C-6C9FC21AF2B6manualTask" transform="scale(0.7,0.7) translate(8,8)" display="none">     	<path oryx:anchors="top left" id="_5679A467-BD33-4308-A25C-6C9FC21AF2B6frame" style="opacity:1;fill:none;fill-opacity:1;stroke-width:1" d="M0.5,3.751l4.083-3.25c0,0,11.166,0.083,12.083,0.083s-2.417,2.917-1.5,2.917     s11.667,0,12.584,0c1.166,1.708-0.168,3.167-0.834,3.667s0.875,1.917-1,4.417c-0.75,0.25,0.75,1.875-1.333,3.333     c-1.167,0.583,0.583,1.542-1.25,2.833c-1.167,0-20.833,0.083-20.833,0.083l-2-1.333V3.751z" stroke="#000000"/> 		<path id="_5679A467-BD33-4308-A25C-6C9FC21AF2B6frame2" oryx:anchors="top left" style="opacity:1;fill:none;stroke-width:2" d="M 13.5 7 L 27 7" stroke="#000000"/> 		<path id="_5679A467-BD33-4308-A25C-6C9FC21AF2B6frame3" oryx:anchors="top left" style="opacity:1;fill:none;stroke-width:2" d="M 13.5 11 L 26 11" stroke="#000000"/> 		<path id="_5679A467-BD33-4308-A25C-6C9FC21AF2B6frame4" oryx:anchors="top left" style="opacity:1;fill:none;stroke-width:1.5" d="M 14 14.5 L 25 14.5" stroke="#000000"/> 		<path id="_5679A467-BD33-4308-A25C-6C9FC21AF2B6frame5" oryx:anchors="top left" style="opacity:1;fill:none;stroke-width:1.5" d="M 8.2 3.1 L 15 3.1" stroke="#000000"/> 	</g> 	 	<g id="_5679A467-BD33-4308-A25C-6C9FC21AF2B6businessRuleTask" transform="scale(0.7,0.7) translate(8,8)" display="none"> 		<rect id="_5679A467-BD33-4308-A25C-6C9FC21AF2B6frame6" oryx:anchors="top left" x="0" y="0" width="22" height="4" style="opacity:1;fill:#B3B1B3;fill-opacity:1;" stroke="#000000"/> 		<rect id="_5679A467-BD33-4308-A25C-6C9FC21AF2B6frame7" oryx:anchors="top left" x="0" y="4" style="opacity:1;fill:none;" width="22" height="12" stroke="#000000"/> 		<path id="_5679A467-BD33-4308-A25C-6C9FC21AF2B6frame8" oryx:anchors="top left" style="opacity:1;fill:none;" d="M 0 10 L 22 10" stroke="#000000"/> 		<path id="_5679A467-BD33-4308-A25C-6C9FC21AF2B6frame9" oryx:anchors="top left" style="opacity:1; fill:none;" d="M 7 4 L 7 16" stroke="#000000"/> 	</g> 	 	<g id="_5679A467-BD33-4308-A25C-6C9FC21AF2B6scriptTask" transform="scale(0.7,0.7) translate(8,8)" display="none"> 		<path oryx:anchors="top left" id="_5679A467-BD33-4308-A25C-6C9FC21AF2B6frame10" style="opacity:1;fill:none;" stroke="#000000" d="M6.402,0.5h14.5c0,0-5.833,2.833-5.833,5.583s4.417,6,4.417,9.167    s-4.167,5.083-4.167,5.083H0.235c0,0,5-2.667,5-5s-4.583-6.75-4.583-9.25S6.402,0.5,6.402,0.5z"/> 		<path oryx:anchors="top left" id="_5679A467-BD33-4308-A25C-6C9FC21AF2B6frame11" style="opacity:1;fill:none;stroke-width:1.5" d="M 3.5 4.5 L 13.5 4.5" stroke="#000000"/> 		<path oryx:anchors="top left" id="_5679A467-BD33-4308-A25C-6C9FC21AF2B6frame12" style="opacity:1;fill:none;stroke-width:1.5" d="M 3.8 8.5 L 13.8 8.5" stroke="#000000"/> 		<path oryx:anchors="top left" id="_5679A467-BD33-4308-A25C-6C9FC21AF2B6frame13" style="opacity:1;fill:none;stroke-width:1.5" d="M 6.3 12.5 L 16.3 12.5" stroke="#000000"/> 		<path oryx:anchors="top left" id="_5679A467-BD33-4308-A25C-6C9FC21AF2B6frame14" style="opacity:1;fill:none;stroke-width:1.5" d="M 6.5 16.5 L 16.5 16.5" stroke="#000000"/> 	</g> 	 	<g id="_5679A467-BD33-4308-A25C-6C9FC21AF2B6userTask" transform="scale(0.7,0.7) translate(8,8)" display="inherit"> 		<path id="_5679A467-BD33-4308-A25C-6C9FC21AF2B6frame15" oryx:anchors="top left" style="opacity:1;fill:#F4F6F7" stroke="#000000" d="M0.585,24.167h24.083v-7.833c0,0-2.333-3.917-7.083-5.167h-9.25    c-4.417,1.333-7.833,5.75-7.833,5.75L0.585,24.167z"/> 		<path id="_5679A467-BD33-4308-A25C-6C9FC21AF2B6frame16" oryx:anchors="top left" style="opacity:1;fill:none" d="M 6 20 L 6 24" stroke="#000000"/> 		<path id="_5679A467-BD33-4308-A25C-6C9FC21AF2B6frame17" oryx:anchors="top left" style="opacity:1;fill:none" d="M 20 20 L 20 24" stroke="#000000"/> 		<circle id="_5679A467-BD33-4308-A25C-6C9FC21AF2B6frame18" oryx:anchors="top left" fill="black" cx="13.002" cy="5.916" r="5.417" stroke="#000000"/> 		<path id="_5679A467-BD33-4308-A25C-6C9FC21AF2B6frame19" oryx:anchors="top left" style="opacity:1;fill:#F0EFF0;" stroke="#000000" d="M8.043,7.083c0,0,2.814-2.426,5.376-1.807s4.624-0.693,4.624-0.693    c0.25,1.688,0.042,3.75-1.458,5.584c0,0,1.083,0.75,1.083,1.5s0.125,1.875-1,3s-5.5,1.25-6.75,0S8.668,12.834,8.668,12    s0.583-1.25,1.25-1.917C8.835,9.5,7.419,7.708,8.043,7.083z"/> 	</g> 	 	<g id="_5679A467-BD33-4308-A25C-6C9FC21AF2B6serviceTask" transform="scale(0.7,0.7) translate(8,8)" display="none"> 		<polygon oryx:anchors="top left" id="_5679A467-BD33-4308-A25C-6C9FC21AF2B6frame20" style="opacity:1;fill:#ffffff" stroke="#000000" points="15.392,5.064 17.954,2.502 20.347,4.895 17.786,7.455     18.729,9.732 22.353,9.732 22.353,13.115 18.731,13.115 17.788,15.392 20.351,17.955 17.958,20.347 15.397,17.786 13.12,18.729     13.12,22.353 9.737,22.353 9.737,18.731 7.46,17.788 4.897,20.35 2.506,17.958 5.066,15.397 4.124,13.12 0.5,13.12 0.5,9.737     4.121,9.737 5.065,7.461 2.503,4.898 4.895,2.506 7.455,5.066 9.732,4.125 9.732,0.5 13.116,0.5 13.116,4.121 "/> 		<circle oryx:anchors="top left" id="_5679A467-BD33-4308-A25C-6C9FC21AF2B6frame21" style="opacity:1;fill:none" stroke="#000000" cx="11.427" cy="11.426" r="3.714"/> 		<polygon oryx:anchors="top left" id="_5679A467-BD33-4308-A25C-6C9FC21AF2B6frame22" style="opacity:1;fill:#ffffff" stroke="#000000" points="21.392,11.064 23.954,8.502 26.347,10.895 23.786,13.455     24.729,15.732 28.353,15.732 28.353,19.115 24.731,19.115 23.788,21.392 26.351,23.955 23.958,26.347 21.397,23.786 19.12,24.729     19.12,28.353 15.737,28.353 15.737,24.731 13.46,23.788 10.897,26.35 8.506,23.958 11.066,21.397 10.124,19.12 6.5,19.12     6.5,15.737 10.121,15.737 11.065,13.461 8.503,10.898 10.895,8.506 13.455,11.066 15.732,10.125 15.732,6.5 19.116,6.5     19.116,10.121 "/> 		<circle oryx:anchors="top left" id="_5679A467-BD33-4308-A25C-6C9FC21AF2B6frame23" style="opacity:1;fill:none;" stroke="#000000" cx="17.427" cy="17.426" r="3.714"/> 	</g> 	 	<g id="_5679A467-BD33-4308-A25C-6C9FC21AF2B6sendTask" display="none"> 		<path id="_5679A467-BD33-4308-A25C-6C9FC21AF2B6stframe24" oryx:anchors="left top" stroke="#FFFFFF" fill="black" stroke-width="1" d="M8,11 L8,21 L24,21 L24,11 L16,17z"/> 		<path id="_5679A467-BD33-4308-A25C-6C9FC21AF2B6stframe25" oryx:anchors="left top" stroke="#FFFFFF" fill="black" stroke-width="1" d="M7,10 L16,17 L25 10z"/> 	</g> 	 	<g id="_5679A467-BD33-4308-A25C-6C9FC21AF2B6receiveTask" display="none"> 		<path id="_5679A467-BD33-4308-A25C-6C9FC21AF2B6frame26" oryx:anchors="left top" stroke="#000000" fill="none" stroke-width="1" d="M8,11 L8,21 L24,21 L24,11z M8,11 L16,17 L24,11"/> 	</g> 	 	<g id="_5679A467-BD33-4308-A25C-6C9FC21AF2B6none" display="inherit"/>  	<g id="_5679A467-BD33-4308-A25C-6C9FC21AF2B6sequential" display="none">         <path oryx:anchors="bottom" fill="none" stroke="#000000" stroke-width="2" d="M46,76h10M46,72h10 M46,68h10" id="_5679A467-BD33-4308-A25C-6C9FC21AF2B6__5679A467-BD33-4308-A25C-6C9FC21AF2B6_20"/>     </g>   </g></g><g class="children" style="overflow:hidden"/><g class="edge"/></g><g class="controls"><g class="dockers"/><g class="magnets" transform="translate(375, 60)"><g pointer-events="all" display="none" transform="translate(-7, 12)"><circle cx="8" cy="8" r="4" stroke="none" fill="red" fill-opacity="0.3"/></g><g pointer-events="all" display="none" transform="translate(-7, 32)"><circle cx="8" cy="8" r="4" stroke="none" fill="red" fill-opacity="0.3"/></g><g pointer-events="all" display="none" transform="translate(-7, 52)"><circle cx="8" cy="8" r="4" stroke="none" fill="red" fill-opacity="0.3"/></g><g pointer-events="all" display="none" transform="translate(17, 71)"><circle cx="8" cy="8" r="4" stroke="none" fill="red" fill-opacity="0.3"/></g><g pointer-events="all" display="none" transform="translate(42, 71)"><circle cx="8" cy="8" r="4" stroke="none" fill="red" fill-opacity="0.3"/></g><g pointer-events="all" display="none" transform="translate(67, 71)"><circle cx="8" cy="8" r="4" stroke="none" fill="red" fill-opacity="0.3"/></g><g pointer-events="all" display="none" transform="translate(91, 12)"><circle cx="8" cy="8" r="4" stroke="none" fill="red" fill-opacity="0.3"/></g><g pointer-events="all" display="none" transform="translate(91, 32)"><circle cx="8" cy="8" r="4" stroke="none" fill="red" fill-opacity="0.3"/></g><g pointer-events="all" display="none" transform="translate(91, 52)"><circle cx="8" cy="8" r="4" stroke="none" fill="red" fill-opacity="0.3"/></g><g pointer-events="all" display="none" transform="translate(17, -7)"><circle cx="8" cy="8" r="4" stroke="none" fill="red" fill-opacity="0.3"/></g><g pointer-events="all" display="none" transform="translate(42, -7)"><circle cx="8" cy="8" r="4" stroke="none" fill="red" fill-opacity="0.3"/></g><g pointer-events="all" display="none" transform="translate(67, -7)"><circle cx="8" cy="8" r="4" stroke="none" fill="red" fill-opacity="0.3"/></g><g pointer-events="all" display="none" transform="translate(42, 32)"><circle cx="8" cy="8" r="4" stroke="none" fill="red" fill-opacity="0.3"/></g></g></g></g><g id="_C98A01E8-FE18-4BBE-B3B9-5AFAA4CB46FA" bpmn2nodeid="_401A445D-421F-47BB-AB70-3A2F5886F0D7"><g class="stencils" transform="translate(360, 315)"><g class="me"><g pointer-events="fill" oryx:minimumSize="50 40" id="_C98A01E8-FE18-4BBE-B3B9-5AFAA4CB46FA">   	<defs id="_C98A01E8-FE18-4BBE-B3B9-5AFAA4CB46FA__C98A01E8-FE18-4BBE-B3B9-5AFAA4CB46FA_17"> 		<radialGradient id="_C98A01E8-FE18-4BBE-B3B9-5AFAA4CB46FAbackground" cx="10%" cy="10%" r="100%" fx="10%" fy="10%"> 			<stop offset="0%" stop-color="#ffffff" stop-opacity="1" id="_C98A01E8-FE18-4BBE-B3B9-5AFAA4CB46FA__C98A01E8-FE18-4BBE-B3B9-5AFAA4CB46FA_18"/> 			<stop id="_C98A01E8-FE18-4BBE-B3B9-5AFAA4CB46FAfill_el" offset="100%" stop-color="#fafad2" stop-opacity="1"/> 		</radialGradient> 		<radialGradient id="_C98A01E8-FE18-4BBE-B3B9-5AFAA4CB46FAborderbackground" cx="10%" cy="10%" r="100%" fx="10%" fy="10%"> 			<stop offset="0%" stop-color="#ffffff" stop-opacity="1" id="_C98A01E8-FE18-4BBE-B3B9-5AFAA4CB46FA__C98A01E8-FE18-4BBE-B3B9-5AFAA4CB46FA_19"/> 			<stop id="_C98A01E8-FE18-4BBE-B3B9-5AFAA4CB46FAfill_border" offset="100%" stop-color="#000000" stop-opacity="1" stroke="#000000"/> 		</radialGradient> 	</defs> 	 	<rect id="_C98A01E8-FE18-4BBE-B3B9-5AFAA4CB46FAtext_frame" oryx:anchors="bottom top right left" x="1" y="1" width="94" height="79" rx="10" ry="10" stroke="none" stroke-width="0" fill="none"/> 	<rect id="_C98A01E8-FE18-4BBE-B3B9-5AFAA4CB46FAbg_frame" oryx:resize="vertical horizontal" x="0" y="0" width="100" height="80" rx="10" ry="10" stroke="#000000" stroke-width="1" fill="url(#_C98A01E8-FE18-4BBE-B3B9-5AFAA4CB46FAbackground) #ffffcc"/> 		<text font-size="12" id="_C98A01E8-FE18-4BBE-B3B9-5AFAA4CB46FAtext_name" x="50" y="40" oryx:align="middle center" oryx:fittoelem="text_frame" stroke="black" text-anchor="middle" stroke-width="0pt" letter-spacing="-0.01px" fill="#000000" transform="rotate(0 50 40)" visibility="inherit" oryx:fontSize="12"><tspan x="50" y="40" dy="-1" id="ext-gen903">Determine </tspan><tspan x="50" y="40" dy="11" id="ext-gen890">Documents</tspan></text>     <g id="_C98A01E8-FE18-4BBE-B3B9-5AFAA4CB46FAmanualTask" transform="scale(0.7,0.7) translate(8,8)" display="none">     	<path oryx:anchors="top left" id="_C98A01E8-FE18-4BBE-B3B9-5AFAA4CB46FAframe" style="opacity:1;fill:none;fill-opacity:1;stroke-width:1" d="M0.5,3.751l4.083-3.25c0,0,11.166,0.083,12.083,0.083s-2.417,2.917-1.5,2.917     s11.667,0,12.584,0c1.166,1.708-0.168,3.167-0.834,3.667s0.875,1.917-1,4.417c-0.75,0.25,0.75,1.875-1.333,3.333     c-1.167,0.583,0.583,1.542-1.25,2.833c-1.167,0-20.833,0.083-20.833,0.083l-2-1.333V3.751z" stroke="#000000"/> 		<path id="_C98A01E8-FE18-4BBE-B3B9-5AFAA4CB46FAframe2" oryx:anchors="top left" style="opacity:1;fill:none;stroke-width:2" d="M 13.5 7 L 27 7" stroke="#000000"/> 		<path id="_C98A01E8-FE18-4BBE-B3B9-5AFAA4CB46FAframe3" oryx:anchors="top left" style="opacity:1;fill:none;stroke-width:2" d="M 13.5 11 L 26 11" stroke="#000000"/> 		<path id="_C98A01E8-FE18-4BBE-B3B9-5AFAA4CB46FAframe4" oryx:anchors="top left" style="opacity:1;fill:none;stroke-width:1.5" d="M 14 14.5 L 25 14.5" stroke="#000000"/> 		<path id="_C98A01E8-FE18-4BBE-B3B9-5AFAA4CB46FAframe5" oryx:anchors="top left" style="opacity:1;fill:none;stroke-width:1.5" d="M 8.2 3.1 L 15 3.1" stroke="#000000"/> 	</g> 	 	<g id="_C98A01E8-FE18-4BBE-B3B9-5AFAA4CB46FAbusinessRuleTask" transform="scale(0.7,0.7) translate(8,8)" display="inherit"> 		<rect id="_C98A01E8-FE18-4BBE-B3B9-5AFAA4CB46FAframe6" oryx:anchors="top left" x="0" y="0" width="22" height="4" style="opacity:1;fill:#B3B1B3;fill-opacity:1;" stroke="#000000"/> 		<rect id="_C98A01E8-FE18-4BBE-B3B9-5AFAA4CB46FAframe7" oryx:anchors="top left" x="0" y="4" style="opacity:1;fill:none;" width="22" height="12" stroke="#000000"/> 		<path id="_C98A01E8-FE18-4BBE-B3B9-5AFAA4CB46FAframe8" oryx:anchors="top left" style="opacity:1;fill:none;" d="M 0 10 L 22 10" stroke="#000000"/> 		<path id="_C98A01E8-FE18-4BBE-B3B9-5AFAA4CB46FAframe9" oryx:anchors="top left" style="opacity:1; fill:none;" d="M 7 4 L 7 16" stroke="#000000"/> 	</g> 	 	<g id="_C98A01E8-FE18-4BBE-B3B9-5AFAA4CB46FAscriptTask" transform="scale(0.7,0.7) translate(8,8)" display="none"> 		<path oryx:anchors="top left" id="_C98A01E8-FE18-4BBE-B3B9-5AFAA4CB46FAframe10" style="opacity:1;fill:none;" stroke="#000000" d="M6.402,0.5h14.5c0,0-5.833,2.833-5.833,5.583s4.417,6,4.417,9.167    s-4.167,5.083-4.167,5.083H0.235c0,0,5-2.667,5-5s-4.583-6.75-4.583-9.25S6.402,0.5,6.402,0.5z"/> 		<path oryx:anchors="top left" id="_C98A01E8-FE18-4BBE-B3B9-5AFAA4CB46FAframe11" style="opacity:1;fill:none;stroke-width:1.5" d="M 3.5 4.5 L 13.5 4.5" stroke="#000000"/> 		<path oryx:anchors="top left" id="_C98A01E8-FE18-4BBE-B3B9-5AFAA4CB46FAframe12" style="opacity:1;fill:none;stroke-width:1.5" d="M 3.8 8.5 L 13.8 8.5" stroke="#000000"/> 		<path oryx:anchors="top left" id="_C98A01E8-FE18-4BBE-B3B9-5AFAA4CB46FAframe13" style="opacity:1;fill:none;stroke-width:1.5" d="M 6.3 12.5 L 16.3 12.5" stroke="#000000"/> 		<path oryx:anchors="top left" id="_C98A01E8-FE18-4BBE-B3B9-5AFAA4CB46FAframe14" style="opacity:1;fill:none;stroke-width:1.5" d="M 6.5 16.5 L 16.5 16.5" stroke="#000000"/> 	</g> 	 	<g id="_C98A01E8-FE18-4BBE-B3B9-5AFAA4CB46FAuserTask" transform="scale(0.7,0.7) translate(8,8)" display="none"> 		<path id="_C98A01E8-FE18-4BBE-B3B9-5AFAA4CB46FAframe15" oryx:anchors="top left" style="opacity:1;fill:#F4F6F7" stroke="#000000" d="M0.585,24.167h24.083v-7.833c0,0-2.333-3.917-7.083-5.167h-9.25    c-4.417,1.333-7.833,5.75-7.833,5.75L0.585,24.167z"/> 		<path id="_C98A01E8-FE18-4BBE-B3B9-5AFAA4CB46FAframe16" oryx:anchors="top left" style="opacity:1;fill:none" d="M 6 20 L 6 24" stroke="#000000"/> 		<path id="_C98A01E8-FE18-4BBE-B3B9-5AFAA4CB46FAframe17" oryx:anchors="top left" style="opacity:1;fill:none" d="M 20 20 L 20 24" stroke="#000000"/> 		<circle id="_C98A01E8-FE18-4BBE-B3B9-5AFAA4CB46FAframe18" oryx:anchors="top left" fill="black" cx="13.002" cy="5.916" r="5.417" stroke="#000000"/> 		<path id="_C98A01E8-FE18-4BBE-B3B9-5AFAA4CB46FAframe19" oryx:anchors="top left" style="opacity:1;fill:#F0EFF0;" stroke="#000000" d="M8.043,7.083c0,0,2.814-2.426,5.376-1.807s4.624-0.693,4.624-0.693    c0.25,1.688,0.042,3.75-1.458,5.584c0,0,1.083,0.75,1.083,1.5s0.125,1.875-1,3s-5.5,1.25-6.75,0S8.668,12.834,8.668,12    s0.583-1.25,1.25-1.917C8.835,9.5,7.419,7.708,8.043,7.083z"/> 	</g> 	 	<g id="_C98A01E8-FE18-4BBE-B3B9-5AFAA4CB46FAserviceTask" transform="scale(0.7,0.7) translate(8,8)" display="none"> 		<polygon oryx:anchors="top left" id="_C98A01E8-FE18-4BBE-B3B9-5AFAA4CB46FAframe20" style="opacity:1;fill:#ffffff" stroke="#000000" points="15.392,5.064 17.954,2.502 20.347,4.895 17.786,7.455     18.729,9.732 22.353,9.732 22.353,13.115 18.731,13.115 17.788,15.392 20.351,17.955 17.958,20.347 15.397,17.786 13.12,18.729     13.12,22.353 9.737,22.353 9.737,18.731 7.46,17.788 4.897,20.35 2.506,17.958 5.066,15.397 4.124,13.12 0.5,13.12 0.5,9.737     4.121,9.737 5.065,7.461 2.503,4.898 4.895,2.506 7.455,5.066 9.732,4.125 9.732,0.5 13.116,0.5 13.116,4.121 "/> 		<circle oryx:anchors="top left" id="_C98A01E8-FE18-4BBE-B3B9-5AFAA4CB46FAframe21" style="opacity:1;fill:none" stroke="#000000" cx="11.427" cy="11.426" r="3.714"/> 		<polygon oryx:anchors="top left" id="_C98A01E8-FE18-4BBE-B3B9-5AFAA4CB46FAframe22" style="opacity:1;fill:#ffffff" stroke="#000000" points="21.392,11.064 23.954,8.502 26.347,10.895 23.786,13.455     24.729,15.732 28.353,15.732 28.353,19.115 24.731,19.115 23.788,21.392 26.351,23.955 23.958,26.347 21.397,23.786 19.12,24.729     19.12,28.353 15.737,28.353 15.737,24.731 13.46,23.788 10.897,26.35 8.506,23.958 11.066,21.397 10.124,19.12 6.5,19.12     6.5,15.737 10.121,15.737 11.065,13.461 8.503,10.898 10.895,8.506 13.455,11.066 15.732,10.125 15.732,6.5 19.116,6.5     19.116,10.121 "/> 		<circle oryx:anchors="top left" id="_C98A01E8-FE18-4BBE-B3B9-5AFAA4CB46FAframe23" style="opacity:1;fill:none;" stroke="#000000" cx="17.427" cy="17.426" r="3.714"/> 	</g> 	 	<g id="_C98A01E8-FE18-4BBE-B3B9-5AFAA4CB46FAsendTask" display="none"> 		<path id="_C98A01E8-FE18-4BBE-B3B9-5AFAA4CB46FAstframe24" oryx:anchors="left top" stroke="#FFFFFF" fill="black" stroke-width="1" d="M8,11 L8,21 L24,21 L24,11 L16,17z"/> 		<path id="_C98A01E8-FE18-4BBE-B3B9-5AFAA4CB46FAstframe25" oryx:anchors="left top" stroke="#FFFFFF" fill="black" stroke-width="1" d="M7,10 L16,17 L25 10z"/> 	</g> 	 	<g id="_C98A01E8-FE18-4BBE-B3B9-5AFAA4CB46FAreceiveTask" display="none"> 		<path id="_C98A01E8-FE18-4BBE-B3B9-5AFAA4CB46FAframe26" oryx:anchors="left top" stroke="#000000" fill="none" stroke-width="1" d="M8,11 L8,21 L24,21 L24,11z M8,11 L16,17 L24,11"/> 	</g> 	 	<g id="_C98A01E8-FE18-4BBE-B3B9-5AFAA4CB46FAnone" display="inherit"/>  	<g id="_C98A01E8-FE18-4BBE-B3B9-5AFAA4CB46FAsequential" display="none">         <path oryx:anchors="bottom" fill="none" stroke="#000000" stroke-width="2" d="M46,76h10M46,72h10 M46,68h10" id="_C98A01E8-FE18-4BBE-B3B9-5AFAA4CB46FA__C98A01E8-FE18-4BBE-B3B9-5AFAA4CB46FA_20"/>     </g>   </g></g><g class="children" style="overflow:hidden"/><g class="edge"/></g><g class="controls"><g class="dockers"/><g class="magnets" transform="translate(360, 315)"><g pointer-events="all" display="none" transform="translate(-7, 12)"><circle cx="8" cy="8" r="4" stroke="none" fill="red" fill-opacity="0.3"/></g><g pointer-events="all" display="none" transform="translate(-7, 32)"><circle cx="8" cy="8" r="4" stroke="none" fill="red" fill-opacity="0.3"/></g><g pointer-events="all" display="none" transform="translate(-7, 52)"><circle cx="8" cy="8" r="4" stroke="none" fill="red" fill-opacity="0.3"/></g><g pointer-events="all" display="none" transform="translate(17, 71)"><circle cx="8" cy="8" r="4" stroke="none" fill="red" fill-opacity="0.3"/></g><g pointer-events="all" display="none" transform="translate(42, 71)"><circle cx="8" cy="8" r="4" stroke="none" fill="red" fill-opacity="0.3"/></g><g pointer-events="all" display="none" transform="translate(67, 71)"><circle cx="8" cy="8" r="4" stroke="none" fill="red" fill-opacity="0.3"/></g><g pointer-events="all" display="none" transform="translate(91, 12)"><circle cx="8" cy="8" r="4" stroke="none" fill="red" fill-opacity="0.3"/></g><g pointer-events="all" display="none" transform="translate(91, 32)"><circle cx="8" cy="8" r="4" stroke="none" fill="red" fill-opacity="0.3"/></g><g pointer-events="all" display="none" transform="translate(91, 52)"><circle cx="8" cy="8" r="4" stroke="none" fill="red" fill-opacity="0.3"/></g><g pointer-events="all" display="none" transform="translate(17, -7)"><circle cx="8" cy="8" r="4" stroke="none" fill="red" fill-opacity="0.3"/></g><g pointer-events="all" display="none" transform="translate(42, -7)"><circle cx="8" cy="8" r="4" stroke="none" fill="red" fill-opacity="0.3"/></g><g pointer-events="all" display="none" transform="translate(67, -7)"><circle cx="8" cy="8" r="4" stroke="none" fill="red" fill-opacity="0.3"/></g><g pointer-events="all" display="none" transform="translate(42, 32)"><circle cx="8" cy="8" r="4" stroke="none" fill="red" fill-opacity="0.3"/></g></g></g></g><g id="_D70164DF-AD6F-4DF1-8AE6-0BFA85EE8B83" bpmn2nodeid="_BC5B7777-D486-4928-B939-32AD601638E4"><g class="stencils" transform="translate(637, 277)"><g class="me"><g pointer-events="fill" oryx:minimumSize="120 100" oryx:maximumSize="" id="_D70164DF-AD6F-4DF1-8AE6-0BFA85EE8B83">   	<defs id="_D70164DF-AD6F-4DF1-8AE6-0BFA85EE8B83__D70164DF-AD6F-4DF1-8AE6-0BFA85EE8B83_17"> 		<radialGradient id="_D70164DF-AD6F-4DF1-8AE6-0BFA85EE8B83background" cx="10%" cy="10%" r="100%" fx="10%" fy="10%"> 			<stop offset="0%" stop-color="#ffffff" stop-opacity="1" id="_D70164DF-AD6F-4DF1-8AE6-0BFA85EE8B83__D70164DF-AD6F-4DF1-8AE6-0BFA85EE8B83_18"/> 			<stop id="_D70164DF-AD6F-4DF1-8AE6-0BFA85EE8B83fill_el" offset="100%" stop-color="#fafad2" stop-opacity="1"/> 		</radialGradient> 		<radialGradient id="_D70164DF-AD6F-4DF1-8AE6-0BFA85EE8B83borderbackground" cx="10%" cy="10%" r="100%" fx="10%" fy="10%"> 			<stop offset="0%" stop-color="#ffffff" stop-opacity="1" id="_D70164DF-AD6F-4DF1-8AE6-0BFA85EE8B83__D70164DF-AD6F-4DF1-8AE6-0BFA85EE8B83_19"/> 			<stop id="_D70164DF-AD6F-4DF1-8AE6-0BFA85EE8B83fill_border" offset="100%" stop-color="#000000" stop-opacity="1" stroke="#000000"/> 		</radialGradient> 	</defs> 	     <rect id="_D70164DF-AD6F-4DF1-8AE6-0BFA85EE8B83text_frame" oryx:anchors="bottom top right left" x="0" y="0" width="190" height="160" rx="10" ry="10" stroke="none" stroke-width="0" fill="none"/> 	<rect id="_D70164DF-AD6F-4DF1-8AE6-0BFA85EE8B83bg_frame" oryx:anchors="bottom top right left" x="0" y="0" width="200" height="160" rx="10" ry="10" stroke="#000000" stroke-width="1" fill="url(#_D70164DF-AD6F-4DF1-8AE6-0BFA85EE8B83background) white"/>     	<text font-size="12" id="_D70164DF-AD6F-4DF1-8AE6-0BFA85EE8B83text_name" x="8" y="10" oryx:align="top left" oryx:fittoelem="text_frame" oryx:anchors="left top" stroke="black" stroke-width="0pt" letter-spacing="-0.01px" fill="#000000" text-anchor="start" transform="rotate(0 8 10)" visibility="inherit" oryx:fontSize="12"><tspan x="8" y="10" dy="12" id="ext-gen1066">Upload Documents</tspan></text>     	 	<g id="_D70164DF-AD6F-4DF1-8AE6-0BFA85EE8B83none"/> 	<g id="_D70164DF-AD6F-4DF1-8AE6-0BFA85EE8B83parallel"> 		<path id="_D70164DF-AD6F-4DF1-8AE6-0BFA85EE8B83frame2" oryx:anchors="bottom" fill="none" stroke="#000000" d="M97 145 v10 M101 145 v10 M105 145 v10" stroke-width="2"/> 	</g> 	undefined 	undefined 	 	 	undefined 	undefined 	 	 	undefined 	undefined   </g></g><g class="children" style="overflow:hidden"/><g class="edge"/></g><g class="controls"><g class="dockers"/><g class="magnets" transform="translate(637, 277)"><g pointer-events="all" display="none" transform="translate(-7, 42)"><circle cx="8" cy="8" r="4" stroke="none" fill="red" fill-opacity="0.3"/></g><g pointer-events="all" display="none" transform="translate(-7, 72)"><circle cx="8" cy="8" r="4" stroke="none" fill="red" fill-opacity="0.3"/></g><g pointer-events="all" display="none" transform="translate(-7, 102)"><circle cx="8" cy="8" r="4" stroke="none" fill="red" fill-opacity="0.3"/></g><g pointer-events="all" display="none" transform="translate(62, 151)"><circle cx="8" cy="8" r="4" stroke="none" fill="red" fill-opacity="0.3"/></g><g pointer-events="all" display="none" transform="translate(92, 151)"><circle cx="8" cy="8" r="4" stroke="none" fill="red" fill-opacity="0.3"/></g><g pointer-events="all" display="none" transform="translate(122, 151)"><circle cx="8" cy="8" r="4" stroke="none" fill="red" fill-opacity="0.3"/></g><g pointer-events="all" display="none" transform="translate(191, 42)"><circle cx="8" cy="8" r="4" stroke="none" fill="red" fill-opacity="0.3"/></g><g pointer-events="all" display="none" transform="translate(191, 72)"><circle cx="8" cy="8" r="4" stroke="none" fill="red" fill-opacity="0.3"/></g><g pointer-events="all" display="none" transform="translate(191, 102)"><circle cx="8" cy="8" r="4" stroke="none" fill="red" fill-opacity="0.3"/></g><g pointer-events="all" display="none" transform="translate(62, -7)"><circle cx="8" cy="8" r="4" stroke="none" fill="red" fill-opacity="0.3"/></g><g pointer-events="all" display="none" transform="translate(92, -7)"><circle cx="8" cy="8" r="4" stroke="none" fill="red" fill-opacity="0.3"/></g><g pointer-events="all" display="none" transform="translate(122, -7)"><circle cx="8" cy="8" r="4" stroke="none" fill="red" fill-opacity="0.3"/></g><g pointer-events="all" display="none" transform="translate(92, 72)"><circle cx="8" cy="8" r="4" stroke="none" fill="red" fill-opacity="0.3"/></g></g></g></g><g id="_41F78E02-7D8E-41A8-B244-1249FD71BDB1" bpmn2nodeid="_516FF206-3B40-4633-8E2F-4F31169C0FAE"><g class="stencils" transform="translate(960, 178)"><g class="me"><g id="_41F78E02-7D8E-41A8-B244-1249FD71BDB1">      <defs id="_41F78E02-7D8E-41A8-B244-1249FD71BDB1__41F78E02-7D8E-41A8-B244-1249FD71BDB1_4"> 		<radialGradient id="_41F78E02-7D8E-41A8-B244-1249FD71BDB1background" cx="10%" cy="10%" r="100%" fx="10%" fy="10%"> 			<stop offset="0%" stop-color="#ffffff" stop-opacity="1" id="_41F78E02-7D8E-41A8-B244-1249FD71BDB1__41F78E02-7D8E-41A8-B244-1249FD71BDB1_5"/> 			<stop id="_41F78E02-7D8E-41A8-B244-1249FD71BDB1fill_el" offset="100%" stop-color="#f0e68c" stop-opacity="1"/> 		</radialGradient> 	</defs> 	     <path d=" M0 20.5  L20.5 0  L40 20.5  L20.5 40  z" id="_41F78E02-7D8E-41A8-B244-1249FD71BDB1bg_frame" fill="url(#_41F78E02-7D8E-41A8-B244-1249FD71BDB1background) white" style="stroke-width:1" stroke="#a67f00"/>     <path id="_41F78E02-7D8E-41A8-B244-1249FD71BDB1frame" d=" M11.25 20.5  L30.25 20.5  M20.5 11.25  L20.5 30.25 " style="fill:none;stroke-width:3" stroke="#a67f00"/>      	<text id="_41F78E02-7D8E-41A8-B244-1249FD71BDB1text_name" x="30.5" y="30.5" oryx:align="left top" stroke-width="0pt" letter-spacing="-0.01px" fill="#000000" text-anchor="start" transform="rotate(0 30.5 30.5)" visibility="inherit" oryx:fontSize="12"/> 	   </g></g><g class="children" style="overflow:hidden"/><g class="edge"/></g><g class="controls"><g class="dockers"/><g class="magnets" transform="translate(960, 178)"><g pointer-events="all" display="none" transform="translate(12.5, 12.5)"><circle cx="8" cy="8" r="4" stroke="none" fill="red" fill-opacity="0.3"/></g></g></g></g><g id="_6CD36949-A0A3-482F-8013-371FD17CB55C" bpmn2nodeid="_8E63C187-5C4A-4224-9D5E-36AACF77DC0A"><g class="stencils" transform="translate(1102, 184)"><g class="me"><g pointer-events="fill" id="_6CD36949-A0A3-482F-8013-371FD17CB55C">      <defs id="_6CD36949-A0A3-482F-8013-371FD17CB55C__6CD36949-A0A3-482F-8013-371FD17CB55C_5"> 		<radialGradient id="_6CD36949-A0A3-482F-8013-371FD17CB55Cbackground" cx="10%" cy="10%" r="100%" fx="10%" fy="10%"> 			<stop offset="0%" stop-color="#ffffff" stop-opacity="1" id="_6CD36949-A0A3-482F-8013-371FD17CB55C__6CD36949-A0A3-482F-8013-371FD17CB55C_6"/> 			<stop id="_6CD36949-A0A3-482F-8013-371FD17CB55Cfill_el" offset="100%" stop-color="#ff6347" stop-opacity="1"/> 		</radialGradient> 	</defs> 	     <circle id="_6CD36949-A0A3-482F-8013-371FD17CB55Cbg_frame" cx="14" cy="14" r="14" stroke="#000000" fill="url(#_6CD36949-A0A3-482F-8013-371FD17CB55Cbackground) white" stroke-width="3"/> 	<text font-size="11" id="_6CD36949-A0A3-482F-8013-371FD17CB55Ctext_name" x="14" y="30" oryx:align="top center" stroke="black" stroke-width="0pt" letter-spacing="-0.01px" fill="#000000" text-anchor="middle" transform="rotate(0 14 30)" visibility="inherit" oryx:fontSize="11"/>   </g></g><g class="children" style="overflow:hidden"/><g class="edge"/></g><g class="controls"><g class="dockers"/><g class="magnets" transform="translate(1102, 184)"><g pointer-events="all" display="none" transform="translate(6, 6)"><circle cx="8" cy="8" r="4" stroke="none" fill="red" fill-opacity="0.3"/></g></g></g></g></g><g class="edge"><g id="_5683468E-683D-41FB-9CE6-263092401506" bpmn2nodeid="_4BD14346-0A1B-41AC-89BE-278A9193D512"><g class="stencils"><g class="me"><g pointer-events="painted" bpmn2nodeid="_150E6893-2554-4A54-A8E7-1311093D7CE5"><path id="_5683468E-683D-41FB-9CE6-263092401506_1" d="M150.609375 180L225.09375 180 " stroke="#000000" fill="none" stroke-width="2" stroke-linecap="round" stroke-linejoin="round" marker-start="url(#_5683468E-683D-41FB-9CE6-263092401506start)" marker-end="url(#_5683468E-683D-41FB-9CE6-263092401506end)"/></g><text id="_5683468E-683D-41FB-9CE6-263092401506text_name" font-size="12" x="164.609375" y="166" oryx:edgePosition="startTop" stroke-width="0pt" letter-spacing="-0.01px" fill="#000000" text-anchor="start" transform="rotate(360 150.609375 180)" visibility="inherit" oryx:fontSize="12"/></g><g class="children" style="overflow:hidden"/><g class="edge"/></g><g class="controls"><g class="dockers"/><g class="magnets"/></g></g><g id="_87640D16-E472-47B2-8C0F-0130F415BDC9" bpmn2nodeid="_6825F177-97DE-45E2-BD26-5BFF62D954ED"><g class="stencils"><g class="me"><g pointer-events="painted" bpmn2nodeid="_F3AA21CD-DEBE-4E2C-93E9-CE38D14D22E0"><path id="_87640D16-E472-47B2-8C0F-0130F415BDC9_1" d="M245 160.25L245 100 L374.78125 100 " stroke="#000000" fill="none" stroke-width="2" stroke-linecap="round" stroke-linejoin="round" marker-start="url(#_87640D16-E472-47B2-8C0F-0130F415BDC9start)" marker-end="url(#_87640D16-E472-47B2-8C0F-0130F415BDC9end)"/></g><text id="_87640D16-E472-47B2-8C0F-0130F415BDC9text_name" font-size="12" x="259" y="146.25" oryx:edgePosition="startTop" stroke-width="0pt" letter-spacing="-0.01px" fill="#000000" text-anchor="start" transform="rotate(270 245 160.25)" visibility="inherit" oryx:fontSize="12"/></g><g class="children" style="overflow:hidden"/><g class="edge"/></g><g class="controls"><g class="dockers"/><g class="magnets"/></g></g><g id="_1E26BFF7-F2E9-4180-AEB0-831526844C59" bpmn2nodeid="_28C85D2C-73F7-4728-9807-8353754F1C6B"><g class="stencils"><g class="me"><g pointer-events="painted" bpmn2nodeid="_28C85D2C-73F7-4728-9807-8353754F1C6B"><path id="_1E26BFF7-F2E9-4180-AEB0-831526844C59_1" d="M245.5 200.5859375L245.5 355 L359.521484375 355 " stroke="#000000" fill="none" stroke-width="2" stroke-linecap="round" stroke-linejoin="round" marker-start="url(#_1E26BFF7-F2E9-4180-AEB0-831526844C59start)" marker-end="url(#_1E26BFF7-F2E9-4180-AEB0-831526844C59end)"/></g><text id="_1E26BFF7-F2E9-4180-AEB0-831526844C59text_name" font-size="12" x="231.5" y="186.5859375" oryx:edgePosition="startTop" stroke-width="0pt" letter-spacing="-0.01px" fill="#000000" text-anchor="end" transform="rotate(-90 245.5 200.5859375)" visibility="inherit" oryx:fontSize="12"/></g><g class="children" style="overflow:hidden"/><g class="edge"/></g><g class="controls"><g class="dockers"/><g class="magnets"/></g></g><g id="_8358D4D2-C3D0-4429-8F67-736B154FAF4F" bpmn2nodeid="_CD9C37AE-8C55-445D-932C-11B7AAAA5B36"><g class="stencils"><g class="me"><g pointer-events="painted" bpmn2nodeid="_CD9C37AE-8C55-445D-932C-11B7AAAA5B36"><path id="_8358D4D2-C3D0-4429-8F67-736B154FAF4F_1" d="M460.8163875465249 355.3108035935567L636.3672062034751 356.3845089064433 " stroke="#000000" fill="none" stroke-width="2" stroke-linecap="round" stroke-linejoin="round" marker-start="url(#_8358D4D2-C3D0-4429-8F67-736B154FAF4Fstart)" marker-end="url(#_8358D4D2-C3D0-4429-8F67-736B154FAF4Fend)"/></g><text id="_8358D4D2-C3D0-4429-8F67-736B154FAF4Ftext_name" font-size="12" x="474.8163875465249" y="341.3108035935567" oryx:edgePosition="startTop" stroke-width="0pt" letter-spacing="-0.01px" fill="#000000" text-anchor="start" transform="rotate(0.3504285326541208 460.8163875465249 355.3108035935567)" visibility="inherit" oryx:fontSize="12"/></g><g class="children" style="overflow:hidden"/><g class="edge"/></g><g class="controls"><g class="dockers"/><g class="magnets"/></g></g><g id="_8933A7CF-FABB-4173-BFB9-CE1BE3856A8F" bpmn2nodeid="_D32967E3-CC77-430F-865C-38F345D19331"><g class="stencils"><g class="me"><g pointer-events="painted" bpmn2nodeid="_D32967E3-CC77-430F-865C-38F345D19331"><path id="_8933A7CF-FABB-4173-BFB9-CE1BE3856A8F_1" d="M475.86328125 100L980 100 L980 177.859375 " stroke="#000000" fill="none" stroke-width="2" stroke-linecap="round" stroke-linejoin="round" marker-start="url(#_8933A7CF-FABB-4173-BFB9-CE1BE3856A8Fstart)" marker-end="url(#_8933A7CF-FABB-4173-BFB9-CE1BE3856A8Fend)"/></g><text id="_8933A7CF-FABB-4173-BFB9-CE1BE3856A8Ftext_name" font-size="12" x="489.86328125" y="86" oryx:edgePosition="startTop" stroke-width="0pt" letter-spacing="-0.01px" fill="#000000" text-anchor="start" transform="rotate(360 475.86328125 100)" visibility="inherit" oryx:fontSize="12"/></g><g class="children" style="overflow:hidden"/><g class="edge"/></g><g class="controls"><g class="dockers"/><g class="magnets"/></g></g><g id="_54B8D2A6-3D8B-44A5-8CF7-31E5D655B60D" bpmn2nodeid="_3A94C821-6C30-4FE0-BBFE-02F07FFCD613"><g class="stencils"><g class="me"><g pointer-events="painted" bpmn2nodeid="_3A94C821-6C30-4FE0-BBFE-02F07FFCD613"><path id="_54B8D2A6-3D8B-44A5-8CF7-31E5D655B60D_1" d="M837.66796875 357L980 357 L980 217.6328125 " stroke="#000000" fill="none" stroke-width="2" stroke-linecap="round" stroke-linejoin="round" marker-start="url(#_54B8D2A6-3D8B-44A5-8CF7-31E5D655B60Dstart)" marker-end="url(#_54B8D2A6-3D8B-44A5-8CF7-31E5D655B60Dend)"/></g><text id="_54B8D2A6-3D8B-44A5-8CF7-31E5D655B60Dtext_name" font-size="12" x="851.66796875" y="343" oryx:edgePosition="startTop" stroke-width="0pt" letter-spacing="-0.01px" fill="#000000" text-anchor="start" transform="rotate(360 837.66796875 357)" visibility="inherit" oryx:fontSize="12"/></g><g class="children" style="overflow:hidden"/><g class="edge"/></g><g class="controls"><g class="dockers"/><g class="magnets"/></g></g><g id="_D83F782A-63B2-42AA-83A3-EDFFFC559E4F" bpmn2nodeid="_FCED7F5F-5922-4EA3-A95A-48865592C21C"><g class="stencils"><g class="me"><g pointer-events="painted" bpmn2nodeid="_FCED7F5F-5922-4EA3-A95A-48865592C21C"><path id="_D83F782A-63B2-42AA-83A3-EDFFFC559E4F_1" d="M1000.5546806918834 198.42599748822184L1101.2382880581167 198.05447126177816 " stroke="#000000" fill="none" stroke-width="2" stroke-linecap="round" stroke-linejoin="round" marker-start="url(#_D83F782A-63B2-42AA-83A3-EDFFFC559E4Fstart)" marker-end="url(#_D83F782A-63B2-42AA-83A3-EDFFFC559E4Fend)"/></g><text id="_D83F782A-63B2-42AA-83A3-EDFFFC559E4Ftext_name" font-size="12" x="1014.5546806918834" y="184.42599748822184" oryx:edgePosition="startTop" stroke-width="0pt" letter-spacing="-0.01px" fill="#000000" text-anchor="start" transform="rotate(359.7885774189607 1000.5546806918834 198.42599748822184)" visibility="inherit" oryx:fontSize="12"/></g><g class="children" style="overflow:hidden"/><g class="edge"/></g><g class="controls"><g class="dockers"/><g class="magnets"/></g></g></g><text id="_BB9092AA-E9BA-4D85-8F05-4C66B569C955" style="stroke-width:1;fill:rgb(177,194,214);font-family:arial;font-weight:bold" font-size="12" onclick="ORYX.Plugins.CanvasTitle.openTextualAnalysis()" onmouseover="ORYX.Plugins.CanvasTitle.addToolTip('_BB9092AA-E9BA-4D85-8F05-4C66B569C955')" transform="translate(10, 20)">EnrichmentProcess v.1.0 (src.EnrichmentProcess)</text></g></g></svg>